/* XPM */
static char * ball_n_xpm[] = {
"48 48 14 1",
" 	c None",
".	c blue",
"X	c navy",
"o	c #008080",
"O	c cyan",
"+	c white",
"@	c #343464",
"#	c #043464",
"$	c #040464",
"%	c #040454",
"&	c #340464",
"*	c #040474",
"=	c black",
"-	c #34349C",
"                                                ",
"                                                ",
"                                                ",
"                                                ",
"                                                ",
"                                                ",
"                                                ",
"                                                ",
"                                                ",
"                                                ",
"                                                ",
"                                                ",
"                                                ",
"                                                ",
"                                                ",
"                    .....Xo                     ",
"                  o.......XXo                   ",
"                 o..OO.....XXX                  ",
"                 o.O++O.....XX                  ",
"                o..O++O.....XXX                 ",
"                ....OOo.....XXX                 ",
"                ............X@X                 ",
"                X..........XX#@                 ",
"                X..........XX$@                 ",
"                XX........XX#@X                 ",
"                XXXX....XXX#@%X                 ",
"                 XXXXXXXXX#&%X                  ",
"                 .X@XXX@*#=#XX                  ",
"                  .-#&#&#@#XX                   ",
"                    X-@#@XX                     ",
"                                                ",
"                                                ",
"                                                ",
"                                                ",
"                                                ",
"                                                ",
"                                                ",
"                                                ",
"                                                ",
"                                                ",
"                                                ",
"                                                ",
"                                                ",
"                                                ",
"                                                ",
"                                                ",
"                                                ",
"                                                "};
