/* XPM */
static char * beartrap_xpm[] = {
"48 48 11 1",
" 	c None",
".	c #FFFFFF",
"+	c #C0C0C0",
"@	c #808080",
"#	c #808080",
"$	c #808000",
"%	c #808000",
"&	c #FFFFFF",
"*	c #808000",
"=	c #808000",
"-	c #808000",
"...............................................+",
".++++++++++++++++++++++++++++++++++++++++++++++@",
".++++++++++++++++++++++++++++++++++++++++++++++@",
".++++++++++++++++++++++++++++++++++++++++++++++@",
".++++++++++++++++++++++++++++++++++++++++++++++@",
".++++++++++++++++++++++++++++++++++++++++++++++@",
".++++++++++++++++++++++++++++++++++++++++++++++@",
".++++++++++++++++++++++++++++++++++++++++++++++@",
".++++++++++++++++++++++++++++++++++++++++++++++@",
".++++++++++++++++++++++++++++++++++++++++++++++@",
".++++++++++++++++++++++++++++++++++++++++++++++@",
".+++++++++++++++++++########+++++++++++++++++++@",
".++++++++++++++++####$%%%%$##++++++++++++++++++@",
".+++++++++++++++##%%%%%%%%%%%##++++++++++++++++@",
".++++++++++++++##%%%%%%%%%%%%%%#+++++++++++++++@",
".+++++++++++++##%%%%%%%%%%%%%%%%&++++++++++++++@",
".++++++++++++##%%%%%%%%%%%%%%%%%%&+++++++++++++@",
".++++++++++++#%%%%%%%%%%%%%%%%%%%%&++++++++++++@",
".+++++++++++##%%%%%%%%%%%%%%%%%%%%*&+++++++++++@",
".+++++++++++#%%%%%%%%%%%%%%%%%%%%%%&+++++++++++@",
".++++++++++##%%%%%%%%%%%%%%%%%%%%%%&&++++++++++@",
".++++++++++#%%%%%%%%%%%%%%%%%%%%%%%=&++++++++++@",
".++++++++++#%%%%%%%%%%%%%%%%%%%%%%%%&++++++++++@",
".++++++++++#%%%%%%%%%%%%%%%%%%%%%%%%&++++++++++@",
".++++++++++#%%%%%%%%%%%%%%%%%%%%%%%%&++++++++++@",
".++++++++++#%%%%%%%%%%%%%%%%%%%%%%%%&++++++++++@",
".++++++++++#%%%%%%%%%%%%%%%%%%%%%%%%&++++++++++@",
".++++++++++#=%%%%%%%%%%%%%%%%%%%%%%=&++++++++++@",
".++++++++++##%%%%%%%%%%%%%%%%%%%%%%&&++++++++++@",
".+++++++++++#%%%%%%%%%%%%%%%%%%%%%%&+++++++++++@",
".+++++++++++##%%%%%%%%%%%%%%%%%%%%*&+++++++++++@",
".++++++++++++#%%%%%%%%%%%%%%%%%%%%&&+++++++++++@",
".+++++++++++++#%%%%%%%%%%%%%%%%%%&&++++++++++++@",
".++++++++++++++&%%%%%%%%%%%%%%%%&&+++++++++++++@",
".+++++++++++++++&%%%%%%%%%%%%%%&&++++++++++++++@",
".++++++++++++++++&#%%%%%%%%%%-&&+++++++++++++++@",
".+++++++++++++++++&&&$%%%%$#&&&++++++++++++++++@",
".+++++++++++++++++++&&&&&&&&+++++++++++++++++++@",
".++++++++++++++++++++++++++++++++++++++++++++++@",
".++++++++++++++++++++++++++++++++++++++++++++++@",
".++++++++++++++++++++++++++++++++++++++++++++++@",
".++++++++++++++++++++++++++++++++++++++++++++++@",
".++++++++++++++++++++++++++++++++++++++++++++++@",
".++++++++++++++++++++++++++++++++++++++++++++++@",
".++++++++++++++++++++++++++++++++++++++++++++++@",
".++++++++++++++++++++++++++++++++++++++++++++++@",
".++++++++++++++++++++++++++++++++++++++++++++++@",
"+@@@@@@@@@@@@@@@@@@@@@@@@@@@@@@@@@@@@@@@@@@@@@@@"};
