/* XPM */
static char * beartrap_xpm[] = {
"48 48 5 1",
" 	c white",
".	c #C0C0C0",
"X	c #808080",
"o	c black",
"O	c #808000",
"                                               .",
" ..............................................X",
" ..............................................X",
" ..............................................X",
" ..............................................X",
" ..............................................X",
" ..............................................X",
" ..............................................X",
" ..............................................X",
" ..............................................X",
" ..............................................X",
" ...................oooooooo...................X",
" ................ooooOOOOOOoo..................X",
" ...............ooOOOOOOOOOOOoo................X",
" ..............ooOOOOOOOOOOOOOOo...............X",
" .............ooOOOOOOOOOOOOOOOO ..............X",
" ............ooOOOOOOOOOOOOOOOOOO .............X",
" ............oOOOOOOOOOOOOOOOOOOOO ............X",
" ...........ooOOOOOOOOOOOOOOOOOOOOO ...........X",
" ...........oOOOOOOOOOOOOOOOOOOOOOO ...........X",
" ..........ooOOOOOOOOOOOOOOOOOOOOOO  ..........X",
" ..........oOOOOOOOOOOOOOOOOOOOOOOOO ..........X",
" ..........oOOOOOOOOOOOOOOOOOOOOOOOO ..........X",
" ..........oOOOOOOOOOOOOOOOOOOOOOOOO ..........X",
" ..........oOOOOOOOOOOOOOOOOOOOOOOOO ..........X",
" ..........oOOOOOOOOOOOOOOOOOOOOOOOO ..........X",
" ..........oOOOOOOOOOOOOOOOOOOOOOOOO ..........X",
" ..........oOOOOOOOOOOOOOOOOOOOOOOOO ..........X",
" ..........ooOOOOOOOOOOOOOOOOOOOOOO  ..........X",
" ...........oOOOOOOOOOOOOOOOOOOOOOO ...........X",
" ...........ooOOOOOOOOOOOOOOOOOOOOO ...........X",
" ............oOOOOOOOOOOOOOOOOOOOO  ...........X",
" .............oOOOOOOOOOOOOOOOOOO  ............X",
" .............. OOOOOOOOOOOOOOOO  .............X",
" ............... OOOOOOOOOOOOOO  ..............X",
" ................ XOOOOOOOOOOO  ...............X",
" .................   OOOOOOX   ................X",
" ...................        ...................X",
" ..............................................X",
" ..............................................X",
" ..............................................X",
" ..............................................X",
" ..............................................X",
" ..............................................X",
" ..............................................X",
" ..............................................X",
" ..............................................X",
".XXXXXXXXXXXXXXXXXXXXXXXXXXXXXXXXXXXXXXXXXXXXXXX"};
