/* XPM */
static char * blob_w_xpm[] = {
"48 48 3 1",
" 	c None",
".	c #008000",
"X	c green",
"                                                ",
"                                                ",
"                                                ",
"                                                ",
"                                                ",
"                                                ",
"                                                ",
"                                                ",
"                      .....                     ",
"                .......XXX......                ",
"            .....XXXXXXX...XXXX..               ",
"          ...XXXXX................              ",
"         ..XXX................... .             ",
"        ..XX...................... .            ",
"       ..XX..........................           ",
"       .XX......................... .           ",
"      ..X........................... .          ",
"      .XX............................ . .       ",
"      .X.............................. . .      ",
"     ..X................................. .     ",
"     .XX.................................. .    ",
"     .X.................................... .   ",
"     .X..................................... .  ",
"    ..X.................................... .   ",
"    .X...................................... .  ",
"    .X.......................................   ",
"    .X...................................... .  ",
"    .X..................................... .   ",
"    ...................................... .    ",
"    ..X.................................. .     ",
"     ..X..................................      ",
"      ................................... .     ",
"       ................................. .      ",
"       .............................. . .       ",
"        ............................ .          ",
"         ..........................             ",
"          ......................                ",
"           ....................                 ",
"            .................                   ",
"               ...........                      ",
"                                                ",
"                                                ",
"                                                ",
"                                                ",
"                                                ",
"                                                ",
"                                                ",
"                                                "};
