/* XPM */
static char * blob_n_xpm[] = {
"48 48 3 1",
" 	c None",
".	c #008000",
"X	c green",
"                                                ",
"                                                ",
"                                                ",
"                                                ",
"                  .......                       ",
"                 ..XXXXX.....                   ",
"                ..XX.....XXX....                ",
"              ...XX...............              ",
"             ..XXX.................             ",
"            ..XX....................            ",
"           ..XX......................           ",
"          ..XX.......................           ",
"         ..XX.........................          ",
"         .XX..........................          ",
"         .X...........................          ",
"        ..X...........................          ",
"        .X.............................         ",
"        .X.............................         ",
"        .X.............................         ",
"        .X.............................         ",
"        .X.............................         ",
"        .X.............................         ",
"        .X..............................        ",
"        .X..............................        ",
"        .X..............................        ",
"        ................................        ",
"         .X.............................        ",
"         .X............................         ",
"         ..............................         ",
"          .............................         ",
"          .............................         ",
"           ............................         ",
"            ..........................          ",
"            ....................... .           ",
"            ...................... .            ",
"             ................... ..             ",
"              ................. ..              ",
"             . ............... .                ",
"              ............... .                 ",
"               ...............                  ",
"              . ............. .                 ",
"               . . ......... .                  ",
"                . . ....... .                   ",
"                   . ... . .                    ",
"                    . . . .                     ",
"                     . . .                      ",
"                                                ",
"                                                "};
