/* XPM */
static char * blob_e_xpm[] = {
"48 48 3 1",
" 	c None",
".	c #008000",
"X	c green",
"                                                ",
"                                                ",
"                                                ",
"                                                ",
"                                                ",
"                                                ",
"                                                ",
"                                                ",
"                      ...........               ",
"                   ....XXXXXXXXX....            ",
"                 ...XXXX.........XX..           ",
"                ..XXX.................          ",
"             ....XX....................         ",
"          . ..XXXX......................        ",
"       . . ..XX..........................       ",
"      . ...XXX...........................       ",
"     . .XXX...............................      ",
"      .XX..................................     ",
"     . .X...................................    ",
"    . .XX...................................    ",
"   . .XX....................................    ",
"  . .XX.....................................    ",
"   .XX......................................    ",
"  . .X......................................    ",
"   . .X.....................................    ",
"  . ..X....................................     ",
"   . ......................................     ",
"    . .....................................     ",
"     . ....................................     ",
"      . . ................................      ",
"       . . ...............................      ",
"          . ..............................      ",
"           . ............................       ",
"           ..............................       ",
"            . ..........................        ",
"             . ........................         ",
"              ........................          ",
"               .....................            ",
"                ................                ",
"                     .....                      ",
"                                                ",
"                                                ",
"                                                ",
"                                                ",
"                                                ",
"                                                ",
"                                                ",
"                                                "};
