/* XPM */
static char * blob_s_xpm[] = {
"48 48 3 1",
" 	c None",
".	c #008000",
"X	c green",
"                                                ",
"                                                ",
"                      . . .                     ",
"                     . . . .                    ",
"                    . . .X. .                   ",
"                   . .X.XX.. . .                ",
"                  . .XXXX.... . .               ",
"                 . .XX.......... .              ",
"                  .XX............               ",
"                 . .X.............              ",
"                . .XX............ .             ",
"              .. .XX..............              ",
"             .X .XX................             ",
"            . ..XX..................            ",
"           . .XXX...................            ",
"          ...XX.....................            ",
"         ..XXX.......................           ",
"         .XX..........................          ",
"         .X...........................          ",
"         .X............................         ",
"         .X............................         ",
"        ..X............................         ",
"        .XX.............................        ",
"        .X..............................        ",
"        .X..............................        ",
"        ..X.............................        ",
"         .X.............................        ",
"         .X.............................        ",
"         .X.............................        ",
"         .X.............................        ",
"         .X.............................        ",
"         ...............................        ",
"          .X............................        ",
"          .X...........................         ",
"          .X...........................         ",
"          .............................         ",
"           ...........................          ",
"           ..........................           ",
"            ........................            ",
"             ......................             ",
"              ....................              ",
"                ................                ",
"                   ............                 ",
"                       .......                  ",
"                                                ",
"                                                ",
"                                                ",
"                                                "};
