/* XPM */
static char * block_w_xpm[] = {
"48 48 5 1",
" 	c #C0C0C0",
".	c #FFFFFF",
"X	c #808000",
"o	c #808080",
"O	c #0000FF",
" ..............................................X",
". ............................................Xo",
"..XXXXXXXXXXXXXXXXXXXXXXXXXXXXXXXXXXXXXXXXXXXXoo",
"..XXXXXXXXXXXXXXXXXXXXXXXXXXXXXXXXXXXXXXXXXXXXoo",
"..XXXXXXXXXXXXXXXXXXXXXXXXXXXXXXXXXXXXXXXXXXXXoo",
"..XXXXXXXXXXXXXXXXXXXXXXXXXXXXXXXXXXXXXXXXXXXXoo",
"..XXXXXXXXXXXXXXXXXXXXXXXXXXXXXXXXXXXXXXXXXXXXoo",
"..XXXXXXXXXXXXXXXXXXXXXXXXXXXXXXXXXXXXXXXXXXXXoo",
"..XXXXXXXXXXXXXXXXXXXXXXXXXXXXXXXXXXXXXXXXXXXXoo",
"..XXXXXXXXXXXXXXXXXXXXXXXXXXXXXXXXXXXXXXXXXXXXoo",
"..XXXXXXXXXXXXXXXXXXXXXXXXXXXXXXXXXXXXXXXXXXXXoo",
"..XXXXXXXXXXXXXXXXXXXXXXXXXXXXXXXXXXXXXXXXXXXXoo",
"..XXXXXXXXXXXXXXXXXXXXXXXXXXXXXXXXXXXXXXXXXXXXoo",
"..XXXXXXXXXXXXXXXXXXXXXXXXXXXXXXXXXXXXXXXXXXXXoo",
"..XXXXXXXXXXXXXXXXXXXXXXXXXXXXXXXXXXXXXXXXXXXXoo",
"..XXXXXXXXXXXXXXXXXXXXXXXXXXXXXXXXXXXXXXXXXXXXoo",
"..XXXXXXOXXXXXXXXXXXXXXXXXXXXXXXXXXXXXXXXXXXXXoo",
"..XXXXXXOXXXXXXXXXXXXXXXXXXXXXXXXXXXXXXXXXXXXXoo",
"..XXXXXOOXXXXXXXXXXXXXXXXXXXXXXXXXXXXXXXXXXXXXoo",
"..XXXXXOOXXXXXXXXXXXXXXXXXXXXXXXXXXXXXXXXXXXXXoo",
"..XXXXOOOXXXXXXXXXXXXXXXXXXXXXXXXXXXXXXXXXXXXXoo",
"..XXXXOOOOOOXXXXXXXXXXXXXXXXXXXXXXXXXXXXXXXXXXoo",
"..XXXOOOOOOOXXXXXXXXXXXXXXXXXXXXXXXXXXXXXXXXXXoo",
"..XXXOOOOOOOXXXXXXXXXXXXXXXXXXXXXXXXXXXXXXXXXXoo",
"..XXXXOOOOOOXXXXXXXXXXXXXXXXXXXXXXXXXXXXXXXXXXoo",
"..XXXXOOOXXXXXXXXXXXXXXXXXXXXXXXXXXXXXXXXXXXXXoo",
"..XXXXXOOXXXXXXXXXXXXXXXXXXXXXXXXXXXXXXXXXXXXXoo",
"..XXXXXOOXXXXXXXXXXXXXXXXXXXXXXXXXXXXXXXXXXXXXoo",
"..XXXXXXOXXXXXXXXXXXXXXXXXXXXXXXXXXXXXXXXXXXXXoo",
"..XXXXXXOXXXXXXXXXXXXXXXXXXXXXXXXXXXXXXXXXXXXXoo",
"..XXXXXXXXXXXXXXXXXXXXXXXXXXXXXXXXXXXXXXXXXXXXoo",
"..XXXXXXXXXXXXXXXXXXXXXXXXXXXXXXXXXXXXXXXXXXXXoo",
"..XXXXXXXXXXXXXXXXXXXXXXXXXXXXXXXXXXXXXXXXXXXXoo",
"..XXXXXXXXXXXXXXXXXXXXXXXXXXXXXXXXXXXXXXXXXXXXoo",
"..XXXXXXXXXXXXXXXXXXXXXXXXXXXXXXXXXXXXXXXXXXXXoo",
"..XXXXXXXXXXXXXXXXXXXXXXXXXXXXXXXXXXXXXXXXXXXXoo",
"..XXXXXXXXXXXXXXXXXXXXXXXXXXXXXXXXXXXXXXXXXXXXoo",
"..XXXXXXXXXXXXXXXXXXXXXXXXXXXXXXXXXXXXXXXXXXXXoo",
"..XXXXXXXXXXXXXXXXXXXXXXXXXXXXXXXXXXXXXXXXXXXXoo",
"..XXXXXXXXXXXXXXXXXXXXXXXXXXXXXXXXXXXXXXXXXXXXoo",
"..XXXXXXXXXXXXXXXXXXXXXXXXXXXXXXXXXXXXXXXXXXXXoo",
"..XXXXXXXXXXXXXXXXXXXXXXXXXXXXXXXXXXXXXXXXXXXXoo",
"..XXXXXXXXXXXXXXXXXXXXXXXXXXXXXXXXXXXXXXXXXXXXoo",
"..XXXXXXXXXXXXXXXXXXXXXXXXXXXXXXXXXXXXXXXXXXXXoo",
"..XXXXXXXXXXXXXXXXXXXXXXXXXXXXXXXXXXXXXXXXXXXXoo",
"..oXXXXXXXXXXXXXXXXXXXXXXXXXXXXXXXXXXXXXXXXXXXoo",
".Xoooooooooooooooooooooooooooooooooooooooooooooo",
"Xooooooooooooooooooooooooooooooooooooooooooooooo"};
