/* XPM */
static char * blueblock_xpm[] = {
"48 48 5 1",
" 	c None",
"+	c #0000FF",
".	c #008080",
"@	c #000080",
"=	c #C0C0C0",
"...............................................+",
"..............................................+@",
".............................................+@@",
"...++++++++++++++++++++++++++++++++++++++++++@@@",
"...++++++++++++++++++++++++++++++++++++++++++@@@",
"...++++++++++++++++++++++++++++++++++++++++++@@@",
"...++++++++++++++++++++++++++++++++++++++++++@@@",
"...++++++++++++++++++++++++++++++++++++++++++@@@",
"...++++++++++++++++++++++++++++++++++++++++++@@@",
"...++++++++++++++++++++++++++++++++++++++++++@@@",
"...++++++++++++++++++++++++++++++++++++++++++@@@",
"...++++++++++++++++++++++++++++++++++++++++++@@@",
"...++++++++++++++++++++++++++++++++++++++++++@@@",
"...++++++++++++++++++++++++++++++++++++++++++@@@",
"...++++++++++++++++++++++++++++++++++++++++++@@@",
"...++++++++++++++++++++++++++++++++++++++++++@@@",
"...++++++++++++++++++++++++++++++++++++++++++@@@",
"...++++++++++++++++++++++++++++++++++++++++++@@@",
"...++++++++++++++++++++++++++++++++++++++++++@@@",
"...++++++++++++++++++++++++++++++++++++++++++@@@",
"...++++++++++++++++++++++++++++++++++++++++++@@@",
"...++++++++++++++++++++++++++++++++++++++++++@@@",
"...++++++++++++++++++++++++++++++++++++++++++@@@",
"...++++++++++++++++++++++++++++++++++++++++++@@@",
"...++++++++++++++++++++++++++++++++++++++++++@@@",
"...++++++++++++++++++++++++++++++++++++++++++@@@",
"...++++++++++++++++++++++++++++++++++++++++++@@@",
"...++++++++++++++++++++++++++++++++++++++++++@@@",
"...++++++++++++++++++++++++++++++++++++++++++@@@",
"...++++++++++++++++++++++++++++++++++++++++++@@@",
"...++++++++++++++++++++++++++++++++++++++++++@@@",
"...++++++++++++++++++++++++++++++++++++++++++@@@",
"...++++++++++++++++++++++++++++++++++++++++++@@@",
"...++++++++++++++++++++++++++++++++++++++++++@@@",
"...++++++++++++++++++++++++++++++++++++++++++@@@",
"...++++++++++++++++++++++++++++++++++++++++++@@@",
"...++++++++++++++++++++++++++++++++++++++++++@@@",
"...++++++++++++++++++++++++++++++++++++++++++@@@",
"...++++++++++++++++++++++++++++++++++++++++++@@@",
"...++++++++++++++++++++++++++++++++++++++++++@@@",
"...++++++++++++++++++++++++++++++++++++++++++@@@",
"...++++++++++++++++++++++++++++++++++++++++++@@@",
"...++++++++++++++++++++++++++++++++++++++++++@@@",
"...++++++++++++++++++++++++++++++++++++++++++@@@",
"...++++++++++++++++++++++++++++++++++++++++++@@@",
"..+@@@@@@@@@@@@@@@@@@@@@@@@@@@@@@@@@@@@@@@@@@@@@",
".+@@@@@@@@@@@@@@@@@@@@@@@@@@@@@@@@@@@@@@@@@@@@@@",
"+@@@@@@@@@@@@@@@@@@@@@@@@@@@@@@@@@@@@@@@@@@@@@@@"};
