/* XPM */
static char * bomb_xpm[] = {
"48 48 5 1",
" 	c white",
".	c #C0C0C0",
"X	c #808080",
"o	c #808000",
"O	c black",
"                                               .",
" ..............................................X",
" ..............................................X",
" ..............................................X",
" ..............................................X",
" ..............................................X",
" ..............................................X",
" ..............................................X",
" ..............................................X",
" ..............................................X",
" ..............................................X",
" .....................XoX......................X",
" .....................oXoX.....................X",
" .......................XoX....................X",
" ........................Xo....................X",
" ........................oX....................X",
" ........................OO....................X",
" .......................OOOO...................X",
" .......................OOOO...................X",
" .......................OOOO...................X",
" .....................OOOOOOOO.................X",
" ...................OOOOOOOOOOOO...............X",
" ..................OOOOOOOOOOOOOO..............X",
" .................OOOOO OOOOOOOOOO.............X",
" ................OOOO    OOOOOOOOOO............X",
" ................OOO     OOOOOOOOOO............X",
" ...............OOOO     OOOOOOOOOOO...........X",
" ...............OOO      OOOOOOOOOOO...........X",
" ...............OOOO    OOOOOOOOOOOO...........X",
" ...............OOOOOOOOOOOOOOOOOOOO...........X",
" ...............OOOOOOOOOOOOOOOOOOOO...........X",
" ...............OOOOOOOOOOOOOOOOOOOO...........X",
" ...............OOOOOOOOOOOOOOOOOOOO...........X",
" ...............OOOOOOOOOOOOOOOOOOOO...........X",
" ...............OOOOOOOOOOOOOOOOOOOO...........X",
" ................OOOOOOOOOOOOOOOOOO............X",
" ................OOOOOOOOOOOOOOOOOO............X",
" .................OOOOOOOOOOOOOOOO.............X",
" ..................OOOOOOOOOOOOOO..............X",
" ...................OOOOOOOOOOOO...............X",
" .....................OOOOOOOO.................X",
" ..............................................X",
" ..............................................X",
" ..............................................X",
" ..............................................X",
" ..............................................X",
" ..............................................X",
".XXXXXXXXXXXXXXXXXXXXXXXXXXXXXXXXXXXXXXXXXXXXXXX"};
