/* XPM */
static char * bootsfire_xpm[] = {
"48 48 6 1",
" 	c None",
".	c #FFFFFF",
"+	c #C0C0C0",
"@	c #808080",
"#	c #000000",
"$	c #FF0000",
"...............................................+",
".++++++++++++++++++++++++++++++++++++++++++++++@",
".++++++++++++++++++++++++++++++++++++++++++++++@",
".++++++++++++++++++++++++++++++++++++++++++++++@",
".++++++++++++++++++++++++++++++++++++++++++++++@",
".++++++++++++++++++++++++++++++++++++++++++++++@",
".++++++++++++++++++++++++++++++++++++++++++++++@",
".++++++++++++++++++++++++++++++++++++++++++++++@",
".++++++++++++++++++++++++++++++++++++++++++++++@",
".++++++++++++++++++++++++++++++++++++++++++++++@",
".++++++++++++++++++++++++++++++++++++++++++++++@",
".++++++++++++++++++++++++++++++++++++++++++++++@",
".++++++++++++++++++++++++++++++++++++++++++++++@",
".++++++++++++++++++++++++++++++++++++++++++++++@",
".++++++++++++#####+++++++++++++++++++++++++++++@",
".++++++++++#############+++++++++++++++++++++++@",
".++++++++++#################+++++++++++++++++++@",
".+++++++++++#################++++++++++++++++++@",
".+++++++++++##################+++++++++++++++++@",
".+++++++++++#$$$###$$#########+++++++++++++++++@",
".+++++++++++#$$$$$#$$$$###$$##+++++++++++++++++@",
".+++++++++++#$$$$$#$$$$$$$$$#++++++++++++++++++@",
".+++++++++++#$$$$$##$$$$$$$$#++++++++++++++++++@",
".+++++++++++##$$$$$##$$$$$$$#++++++++++++++++++@",
".++++++++++++#$$$$$$#$$$$$$$#++++++++++++++++++@",
".++++++++++++#$$$$$$#$$$$$$$#++++++++++++++++++@",
".++++++++++++#$$$$$##$$$$$###++++++++++++++++++@",
".++++++++++++#$$$$$#$$$$$$$$#++++++++++++++++++@",
".++++++++++++#$$$$$#$$$$$$###++++++++++++++++++@",
".++++++++++++#$$$$$#$$$$$$$#+++++++++++++++++++@",
".++++++++++++#$$$$$#$$$$$###+++++++++++++++++++@",
".++++++++++++#$$$$$#$$$$$$$#+++++++++++++++++++@",
".++++++++++++#$$$$$##$$$$####++++++++++++++++++@",
".++++++++++###$$$$$##$$$$$$###+++++++++++++++++@",
".++++++++++##$$$$$$#$$$$$$########+++++++++++++@",
".++++++++++#$$$$$$##$$$$$$$$#$######+++++++++++@",
".++++++++++#$$$$$$#$$$$$$$$$$$$#$#$##++++++++++@",
".+++++++++##$$$$$$#$$$$$$$$$$$$$$$$$##+++++++++@",
".+++++++++#####$$$#$$$$$$$$$$$$$$$$$$#+++++++++@",
".++++++++++#########$$$$$$$$$$$$$$$$$##++++++++@",
".+++++++++++++++++######$$$$$#####$####++++++++@",
".++++++++++++++++++###########+++#####+++++++++@",
".++++++++++++++++++++++++++++++++++++++++++++++@",
".++++++++++++++++++++++++++++++++++++++++++++++@",
".++++++++++++++++++++++++++++++++++++++++++++++@",
".++++++++++++++++++++++++++++++++++++++++++++++@",
".++++++++++++++++++++++++++++++++++++++++++++++@",
"+@@@@@@@@@@@@@@@@@@@@@@@@@@@@@@@@@@@@@@@@@@@@@@@"};
