/* XPM */
static char * bug_n_xpm[] = {
"48 48 6 1",
" 	c None",
".	c black",
"X	c #808080",
"o	c white",
"O	c red",
"+	c #800000",
"                                                ",
"                                                ",
"                                                ",
"                                                ",
"            .                     .             ",
"             .                   .              ",
"            .                     .             ",
"           .         .   .         .            ",
"           .        .X   X.        .            ",
"           .         . . .         .            ",
"           ..       .......       ..            ",
"            ..     ..X...X..     ..             ",
"             ..   ..ooX.Xoo..   ..              ",
"              .   .XoooXoooX.   .               ",
"              .....ooooooooo.....               ",
"               .....ooooooo.....                ",
"              OOOO...........OOO+               ",
"             OOOOOOOOOO.OOOOOOOO++              ",
"             OoOOOOOOOO.OOOOOOOOO+              ",
"            OoOO..OOOOO.OOOOO..O+O+             ",
"          ..OoO....OOOO.OOOO....O++.....        ",
"       .....OoO....OOOO.OOOO....+O+..  ..       ",
"      ..   OoOOO..OOOOO.OOOOO..OO+O+    ..      ",
"     ..    OoOOOOOOOOOO.OOOOOOOO+O++     .      ",
"     .     OoOOOOOO..OO.OO..OOOOO+O+    .       ",
"      .    OoOOOOOO..OO.OO..OOOO+O++   .        ",
"       .   OoOOOOOOOOOO.OOOOOOOOO+O+    ..      ",
"     ..   .OoOO..OOOOOO.OOOOOO..+O++..          ",
"         ..OoOO..OOOOOO.OOOOOO..O+O+....        ",
"       ....OOOOOOOOOOOO.OOOOOOOO+O++......      ",
"     ..... OOOOOOO..OOO.OOO..OOOO+O+    ...     ",
"    ...     OOOOO....OO.OO....OO+O+       ..    ",
"   ..       OOOOO....OO.OO....OOO++       ..    ",
"   ..       OOOOOO..OOO.OOO..OOO+O+      ..     ",
"    ..       OOOOOOOOOO.OOOOOOOOO+      ..      ",
"     ..      OOOOOOOOOO.OOOOOOOO++      .       ",
"      .       OOOOOOOOO.OOOOOOOO+      .        ",
"       .       OOOOOOOO.OOOOOOO+      .         ",
"        .       OOOOOOO.OOOOO++        ..       ",
"      ..          OOOOO.OOO++                   ",
"                    OOO.OO+                     ",
"                                                ",
"                                                ",
"                                                ",
"                                                ",
"                                                ",
"                                                ",
"                                                "};
