/* XPM */
static char * bug_s_xpm[] = {
"48 48 6 1",
" 	c None",
".	c red",
"X	c black",
"o	c white",
"O	c #800000",
"+	c #808080",
"                                                ",
"                                                ",
"                                                ",
"                                                ",
"                                                ",
"                                                ",
"                                                ",
"                     ...X...                    ",
"                   ..oo.X...OO          XX      ",
"       XX        ..oo...X.....OO       X        ",
"         X      .oo.....X.......O       X       ",
"        X      .o.......X........O       X      ",
"       X      .o........X.........O      XX     ",
"      XX      .o........X........OO       XX    ",
"     XX      .o....XX...X...XX....OO       XX   ",
"    XX       .o...XXXX..X..XXXX..O.O       XX   ",
"    XX       .o...XXXX..X..XXXX...OO     XXX    ",
"     XXX    .o.....XX...X...XX...O.OO XXXXX     ",
"      XXXXXX.o..........X.........O.OXXXX       ",
"        XXXX.o..XX......X......XXO.OOXX         ",
"          XX.o..XX......X......XX.O.OX   XX     ",
"      XX    .o..........X........O.OO   X       ",
"        X   .o......XX..X..XX.....O.O    X      ",
"       X    .o......XX..X..XX....O.OO     X     ",
"      X     ............X.........O.O    XX     ",
"      XX    .....XX.....X.....XX.O.OO   XX      ",
"       XX  XX...XXXX....X....XXXX.O.XXXXX       ",
"        XXXXX...XXXX....X....XXXXO.OXX          ",
"             ....XX.....X.....XXO.OO            ",
"              ..........X........OO             ",
"              ..........X.......OOO             ",
"               ....XXXXXXXXXXXOOOO              ",
"                XXXXXoooooooXXXXX               ",
"               XXXXXoooooooooXXXXX              ",
"               X   X+ooo+ooo+X   X              ",
"              XX   XXoo+X+ooXX   XX             ",
"             XX     XX+XXX+XX     XX            ",
"            XX       XXXXXXX       XX           ",
"            X         X X X         X           ",
"            X        X+   +X        X           ",
"            X         X   X         X           ",
"             X                     X            ",
"              X                   X             ",
"             X                     X            ",
"                                                ",
"                                                ",
"                                                ",
"                                                "};
