/* XPM */
static char * bug_e_xpm[] = {
"48 48 6 1",
" 	c None",
".	c black",
"X	c red",
"o	c white",
"O	c #800000",
"+	c #808080",
"                                                ",
"                                                ",
"                                                ",
"              ..                                ",
"             ....                               ",
"            ..  ..  .  ..                       ",
"        .  ..   ..  . . ..                      ",
"        . .      ..  .   ..                     ",
"         .       ..       .                     ",
"                 ...      .                     ",
"                  ...     ..                    ",
"                 XXXXXXXXX..         ....       ",
"              XXXooooooooXXXO       ..   . .    ",
"            XXoooXXXXXXXXXXXXOO    ..     .     ",
"           XooXXXXXXXXXXXXXXXXXO ...            ",
"          XoXXXXXXX..XXXXX..XXXX..              ",
"         XoXXXXXXXX..XXXX....XXX..              ",
"         XXXXXX..XXXXXXXX....XXX..              ",
"        XXXXXX....XXXXXXXX..XXX.....            ",
"        XXXXXX....XXXX..XXXXXXX..o+..           ",
"       XXXXXXXX..XXXXX..XXXXXXX.oooo.. .        ",
"       XXXXXXXXXXXXXXXXXXXXXXXX.oooo+..+.       ",
"       XXXXXXXXXXXXXXXXXXXXXXXX.ooo+..          ",
"       .........................oo+....         ",
"       XXXXXXXXXXXXXXXXXXXXXXXO.ooo+..          ",
"       XXXXXXXXXXXXXXXXXXXXXXOX.oooo+..+.       ",
"       XXXXXXXX..XXXXX..XXXXOXO.oooo.. .        ",
"        XXXXXX....XXXX..XXXXXOX..o+..           ",
"        XXXXXX....XXXXXXXX..OXO.....            ",
"         XXXXXX..XXXXXXXX....OXO..              ",
"         XXXXXXXXXX..XXXX....XOX..              ",
"          XXXXXXXXX..XXXXX..XOXO..              ",
"           XXXXXXXXXXXXXXXXXOXOO ...            ",
"            XXXXXXXXXXXXXXXOXOO    ..     .     ",
"              XXXXXXXXXXXXXOO       ..   . .    ",
"                 XXXXXXXXX..         ....       ",
"                  ...     ..                    ",
"                  ...      .                    ",
"          .       ..       .                    ",
"         . .      ..  .   ..                    ",
"         .  ..   ..  . . ..                     ",
"             ..  ..  .  ..                      ",
"              ....                              ",
"               ..                               ",
"                                                ",
"                                                ",
"                                                ",
"                                                "};
