/* XPM */
static char * bug_w_xpm[] = {
"48 48 6 1",
" 	c None",
".	c white",
"X	c black",
"o	c red",
"O	c #800000",
"+	c #808080",
"                  .                             ",
"                                                ",
"                                                ",
"                                                ",
"                               XX               ",
"                              XXXX              ",
"                      XX  X  XX  XX             ",
"                     XX X X  XX   XX  X         ",
"                    XX   X  XX      X X         ",
"                    X       XX       X          ",
"                    X      XXX                  ",
"                    XX     XXX                  ",
"       XXXX         XXooooooooo                 ",
"    X X   XX       ooo.......ooOOO              ",
"     X     XX    oo...ooooooooooooOO            ",
"            XXX o..oooooooooooooooooO           ",
"              XXooooXXoooooXXooooooooO          ",
"              XXoooXXXXooooXXoooooooooO         ",
"              XXoooXXXXooooooooXXoooooO         ",
"            XXXXXoooXXooooooooXXXXoooooO        ",
"           XX+.XXoooooooXXooooXXXXooooOO        ",
"        X XX....XoooooooXXoooooXXooooooOO       ",
"       X+XX+....XoooooooooooooooooooooOoO       ",
"          XX+...XooooooooooooooooooooOoOO       ",
"         XXXX+..XXXXXXXXXXXXXXXXXXXXXXXXX       ",
"          XX+...XooooooooooooooooooooOoOO       ",
"       X+XX+....XoooooooooooooooooooOoOoO       ",
"        X XX....XoooooooXXoooooXXooooOoOO       ",
"           XX+.XXoooooooXXooooXXXXooOoOO        ",
"            XXXXXoooXXooooooooXXXXoOoOOO        ",
"              XXoooXXXXooooooooXXoooOoO         ",
"              XXoooXXXXooooXXooooooOoOO         ",
"              XXooooXXoooooXXoooooOoOO          ",
"            XXX oooooooooooooooooOoOO           ",
"     X     XX    oooooooooooooooOOOO            ",
"    X X   XX       oooooooooooOOOO              ",
"       XXXX         XXOOOOOOOOO                 ",
"                    XX     XXX                  ",
"                     X      XXX                 ",
"                     X       XX       X         ",
"                     XX   X  XX      X X        ",
"                      XX X X  XX   XX  X        ",
"                       XX  X  XX  XX            ",
"                               XXXX             ",
"                                XX              ",
"                                                ",
"                                                ",
"                                                "};
