/* XPM */
static char * buttonred_xpm[] = {
"48 48 6 1",
" 	c white",
".	c #C0C0C0",
"X	c #808080",
"o	c red",
"O	c #800000",
"+	c black",
"                                               .",
" ..............................................X",
" ..............................................X",
" ..............................................X",
" ..............................................X",
" ..............................................X",
" ..............................................X",
" ..............................................X",
" ..............................................X",
" ..............................................X",
" ..............................................X",
" ..............................................X",
" ..............................................X",
" ..............................................X",
" ..................         ...................X",
" ................  .........XX.................X",
" ............... ...       ...X................X",
" .............. ..  ooooooo  ..X...............X",
" .............. . oooooooooooO.X...............X",
" ............. .. oooooooooooO..+..............X",
" ............. . oooooooooooooO.+..............X",
" ............. . oooooooooooooO.+..............X",
" ............. . oooooooooooooO.+..............X",
" ............. . oooooooooooooO.+..............X",
" ............. . oooooooooooooO.+..............X",
" ............. . oooooooooooooO.+..............X",
" ............. . oooooooooooooO.+..............X",
" ............. . oooooooooooooO.+..............X",
" ............. .. oooooooooooO..+..............X",
" ..............X. oooooooooooO.+...............X",
" ..............X..OOoooooooOO..+...............X",
" ...............X...OOOOOOO...+................X",
" ................XX.........++.................X",
" ..................+++++++++...................X",
" ..............................................X",
" ..............................................X",
" ..............................................X",
" ..............................................X",
" ..............................................X",
" ..............................................X",
" ..............................................X",
" ..............................................X",
" ..............................................X",
" ..............................................X",
" ..............................................X",
" ..............................................X",
" ..............................................X",
".XXXXXXXXXXXXXXXXXXXXXXXXXXXXXXXXXXXXXXXXXXXXXXX"};
