/* XPM */
static char * buttonbrown_xpm[] = {
"48 48 5 1",
" 	c white",
".	c #C0C0C0",
"X	c #808080",
"o	c #808000",
"O	c black",
"                                               .",
" ..............................................X",
" ..............................................X",
" ..............................................X",
" ..............................................X",
" ..............................................X",
" ..............................................X",
" ..............................................X",
" ..............................................X",
" ..............................................X",
" ..............................................X",
" ..............................................X",
" ..............................................X",
" ..............................................X",
" ..................         ...................X",
" ................  .........XX.................X",
" ............... ...       ...X................X",
" .............. ..  ooooooo  ..X...............X",
" .............. . oooooooooooX.X...............X",
" ............. .. oooooooooooX..O..............X",
" ............. . oooooooooooooX.O..............X",
" ............. . oooooooooooooX.O..............X",
" ............. . oooooooooooooX.O..............X",
" ............. . oooooooooooooX.O..............X",
" ............. . oooooooooooooX.O..............X",
" ............. . oooooooooooooX.O..............X",
" ............. . oooooooooooooX.O..............X",
" ............. . oooooooooooooX.O..............X",
" ............. .. oooooooooooX..O..............X",
" ..............X. oooooooooooX.O...............X",
" ..............X..XXoooooooXX..O...............X",
" ...............X...XXXXXXX...O................X",
" ................XX.........OO.................X",
" ..................OOOOOOOOO...................X",
" ..............................................X",
" ..............................................X",
" ..............................................X",
" ..............................................X",
" ..............................................X",
" ..............................................X",
" ..............................................X",
" ..............................................X",
" ..............................................X",
" ..............................................X",
" ..............................................X",
" ..............................................X",
" ..............................................X",
".XXXXXXXXXXXXXXXXXXXXXXXXXXXXXXXXXXXXXXXXXXXXXXX"};
