/* XPM */
static char * chip_s_xpm[] = {
"48 48 3 1",
" 	c None",
".	c black",
"X	c white",
"                                                ",
"                                                ",
"                        ...                     ",
"                       .XXX.                    ",
"                      .XXXXX.                   ",
"                      .XXXXX.                   ",
"                     .XXXXXX.                   ",
"             .       .XXXXXX.                   ",
"            .X.      .XXXXX.                    ",
"            .XX.      .XXX.                     ",
"             .X.       .X.                      ",
"             .X.      .XX.                      ",
"             .X.    ..XXXX..                    ",
"             .XX.  .XXXXXXXX.                   ",
"              .X...XXXXXXXXXX.                  ",
"              .X.XXX.XXXXXX.XX.                 ",
"              .XXX...XXXXXX..X.                 ",
"              .XX.  .XXXXXX..XX.                ",
"               ..  .XXXXXXXX..X.                ",
"               .   .XXXXXXXX..XX.               ",
"                   .XXXXXXXX. .X.               ",
"                   .XXXXXXXX. .XX.              ",
"                   .XXXXXXXX.  .X.              ",
"                    .XXXXXX.   .X.              ",
"                    .XXXXXX.   .X.              ",
"                     .XXXX.    .X.              ",
"                     .XXXX.   .XX.              ",
"                    .XX..XX.  .X.               ",
"                    .X.  .X.  .X.               ",
"                   .XX.  .XX.  .                ",
"                   .X.    .X.                   ",
"                  .XX.    .X.                   ",
"                  .X.     .XX.                  ",
"                  .X.      .X.                  ",
"                  .X.      .X.                  ",
"                  .X.      .X.                  ",
"                  .X.      .X.                  ",
"                  .XX.     .X.                  ",
"                   .X.    .XX.                  ",
"                   .X.    .X.                   ",
"                   .X.    .X.                   ",
"                   .X.    .X.                   ",
"                  ..XX.  .XX..                  ",
"                 .XXXX.  .XXXX.                 ",
"                 ......  ......                 ",
"                                                ",
"                                                ",
"                                                "};
