/* XPM */
static char * chip_n_xpm[] = {
"48 48 3 1",
" 	c None",
".	c black",
"X	c white",
"                                                ",
"                                                ",
"                      ...                       ",
"                     .XXX.                      ",
"                    .XXXXX.                     ",
"                    .XXXXX.                     ",
"                    .XXXXXX.                    ",
"                    .XXXXXX.                    ",
"                     .XXXXX.                    ",
"                      .XXX.                     ",
"                       .X.                      ",
"                       .XX.                     ",
"                     ..XXXX..                   ",
"                    .XXXXXXXX.                  ",
"                   .XXXXXXXXXX.                 ",
"                  .XX.XXXXXX.XX.                ",
"                  .X..XXXXXX..XX.               ",
"                 .XX..XXXXXX. .XX.              ",
"                 .X..XXXXXXXX. .XX.             ",
"                .XX..XXXXXXXX.  .X.             ",
"                .X. .XXXXXXXX. .XX.             ",
"               .XX. .XXXXXXXX. .X.              ",
"               .X.  .XXXXXXXX..XX.              ",
"               .X.   .XXXXXX..XX.               ",
"               .X.   .XXXXXX.XX.                ",
"               .X.    .XXXX. ..                 ",
"               .XX.   .XXXX.                    ",
"                .X.  .XX..XX.                   ",
"                .X.  .X.  .X.                   ",
"                 .  .XX.  .XX.                  ",
"                    .X.    .X.                  ",
"                    .X.    .XX.                 ",
"                   .XX.     .X.                 ",
"                   .X.      .X.                 ",
"                   .X.      .X.                 ",
"                   .X.      .X.                 ",
"                   .X.      .X.                 ",
"                   .X.     .XX.                 ",
"                   .XX.    .X.                  ",
"                    .X.    .X.                  ",
"                    .X.    .X.                  ",
"                    .X.    .X.                  ",
"                   ..XX.  .XX..                 ",
"                  .XXXX.  .XXXX.                ",
"                  ......  ......                ",
"                                                ",
"                                                ",
"                                                "};
