/* XPM */
static char * chip_w_xpm[] = {
"48 48 3 1",
" 	c None",
".	c black",
"X	c white",
"                                                ",
"                                                ",
"                     ...                        ",
"                    .XXX.                       ",
"                   .XXXXX.                      ",
"                   .XXXXX.                      ",
"                  .XXXXXX.                      ",
"                  .XXXXXX.                      ",
"                  .XXXXX.                       ",
"                   .XXX.                        ",
"                    .X.                         ",
"                    .XX.                        ",
"                     .XX..                      ",
"                    .XXXXX.                     ",
"                    .XXXXXX..                   ",
"                   .XXXXX.XXX.                  ",
"                   .X.XXXX..XX.                 ",
"           ...    .XX.XXXXX..XX.                ",
"          .XXX..  .X..XXX...XXX.                ",
"           ..XXX..XX..X..XXXX..                 ",
"             ..XXXX. ..XXX...                   ",
"               ..X.  .XX...XX.                  ",
"                 .    ..XXXXX.                  ",
"                      .XXXXXX.                  ",
"                      .XXXXXX.                  ",
"                      .XXXXX.                   ",
"                       .XXXX.                   ",
"                       .XXXX.                   ",
"                      .XXXX.                    ",
"                     .XX.X.                     ",
"                    .XX.XX.                     ",
"                   .XX..X.                      ",
"                  .XX. .X.                      ",
"                  .X.  .X.                      ",
"                  .XX. .X.                      ",
"                   .X. .X.                      ",
"                   .X. .XX.                     ",
"                   .X.  .X.                     ",
"                   .XX. .XX.                    ",
"                    .X.  .X.                    ",
"                    .X.  .XX.                   ",
"                    .X.   .XX.                  ",
"                   ..XX.  ..X.                  ",
"                  .XXXX. .XXXX.                 ",
"                  ...... ......                 ",
"                                                ",
"                                                ",
"                                                "};
