/* XPM */
static char * chip_e_xpm[] = {
"48 48 3 1",
" 	c None",
".	c black",
"X	c white",
"                                                ",
"                                                ",
"                        ...                     ",
"                       .XXX.                    ",
"                      .XXXXX.                   ",
"                      .XXXXX.                   ",
"                      .XXXXXX.                  ",
"                      .XXXXXX.                  ",
"                       .XXXXX.                  ",
"                        .XXX.                   ",
"                         .X.                    ",
"                        .XX.                    ",
"                      ..XX.                     ",
"                     .XXXXX.                    ",
"                   ..XXXXXX.                    ",
"                  .XXX.XXXXX.                   ",
"                 .XX..XXXX.X.                   ",
"                .XX..XXXXX.XX.    ...           ",
"                .XXX...XXX..X.  ..XXX.          ",
"                 ..XXXX..X..XX..XXX..           ",
"                   ...XXX.. .XXXX..             ",
"                  .XX...XX.  .X..               ",
"                  .XXXXX..    .                 ",
"                  .XXXXXX.                      ",
"                  .XXXXXX.                      ",
"                   .XXXXX.                      ",
"                   .XXXX.                       ",
"                   .XXXX.                       ",
"                    .XXXX.                      ",
"                     .X.XX.                     ",
"                     .XX.XX.                    ",
"                      .X..XX.                   ",
"                      .X. .XX.                  ",
"                      .X.  .X.                  ",
"                      .X. .XX.                  ",
"                      .X. .X.                   ",
"                     .XX. .X.                   ",
"                     .X.  .X.                   ",
"                    .XX. .XX.                   ",
"                    .X.  .X.                    ",
"                   .XX.  .X.                    ",
"                  .XX.   .X.                    ",
"                  .X..  .XX..                   ",
"                 .XXXX. .XXXX.                  ",
"                 ...... ......                  ",
"                                                ",
"                                                ",
"                                                "};
