/* XPM */
static char * cloner_xpm[] = {
"48 48 5 1",
" 	c #C0C0C0",
".	c #808000",
"X	c #808080",
"o	c black",
"O	c #008080",
"                                               .",
"                                              Xo",
"                                             Xoo",
"   XXXXXXXXXXXXXXXXXXXXXXXXXXXXXXXXXXXXXXXXXXooo",
"   XXXXXXXXXXXXXXXXXXXXXXXXXXXXXXXXXXXXXXXXXXooo",
"   XXXXXXXXXXXXXXXXXXXXXXXXXXXXXXXXXXXXXXXXXXooo",
"   XXXooooooooooooooooooooooooooooooooooooXXXooo",
"   XXXoooooooooooooooooooooooooooooooooooX XXooo",
"   XXXooooooooooooooooooooooooooooooooooX  XXooo",
"   XXXoooXXXXXXXXXXXXXXXXXXXXXXXXXXXXXXX   XXooo",
"   XXXoooXXXXXXXXXOOOXXXXXXXXXXXXXXXXXXX   XXooo",
"   XXXoooXXXXXXOOXOOOXOOXXXXXXXXXXXXXXXX   XXooo",
"   XXXoooXXXXXXOOOOOOOOOXXXXXXXXXXXXXXXX   XXooo",
"   XXXoooXXXXOOOOOOXOOOOOOXXXXXXXXXXXXXX   XXooo",
"   XXXoooXXXXOOOOXXXXXOOOOXXXXXXXXXXXXXX   XXooo",
"   XXXoooXXXOOOOOOXXXOOOOOOXXXXXXXXXXXXX   XXooo",
"   XXXoooXXXOOOXOOOOOOOXOOOXXXXXXXXXXXXX   XXooo",
"   XXXoooXXOOOOXXOOOOOXXOOOOXXXXXXXXXXXX   XXooo",
"   XXXoooXXOOOXXXOOOOOXXXOOOXXXXXXXXXXXX   XXooo",
"   XXXoooXXOOOOXXOOOOOXXOOOOXXXXXXXXXXXX   XXooo",
"   XXXoooXXXOOOXOOOOOOOXOOOXXXXXXXXXXXXX   XXooo",
"   XXXoooXXXOOOOOOXXXOOOOOOXXXOOOXXXXXXX   XXooo",
"   XXXoooXXXXOOOOXXXXXOOOOXOOXOOOXOOXXXX   XXooo",
"   XXXoooXXXXOOOOOOXOOOOOOXOOOOOOOOOXXXX   XXooo",
"   XXXoooXXXXXXOOOOOOOOOXOOOOOOOOOOOOOXX   XXooo",
"   XXXoooXXXXXXOOXOOOXOOXOOOOXXOXXOOOOXX   XXooo",
"   XXXoooXXXXOXXXOOOOXXXXXOOXXXOXXXOOXXX   XXooo",
"   XXXoooXXXOOOOOOOXXXXXOOOOXXOOOXXOOOOX   XXooo",
"   XXXoooXXXXOOOOOXXXXXXOOOOOOOOOOOOOOOX   XXooo",
"   XXXoooXXOOOXXXOOOXXXXOOOOXXOOOXXOOOOX   XXooo",
"   XXXoooXXOOXOXOXOOXXXXXXOOXXXOXXXOOXXX   XXooo",
"   XXXoooXXXOXXOXXOXXXXXXOOOOXXOXXOOOOXX   XXooo",
"   XXXoooXXOOXOXOXOOXXXXXOOOOOOOOOOOOOXX   XXooo",
"   XXXoooXXOOOXXXOOOXXXXXXXOOOOOOOOOXXXX   XXooo",
"   XXXoooXXXXOOOOOXXXXXXXXXOOXOOOXOOXXXX   XXooo",
"   XXXoooXXXOOOOOOOXXXXXXXXXXXOOOXXXXXXX   XXooo",
"   XXXoooXXXXOXXXOXXXXXXXXXXXXXXXXXXXXXX   XXooo",
"   XXXoooXXXXXXXXXXXXXXXXXXXXXXXXXXXXXXX   XXooo",
"   XXXoooXXXXXXXXXXXXXXXXXXXXXXXXXXXXXXX   XXooo",
"   XXXoooXXXXXXXXXXXXXXXXXXXXXXXXXXXXXXX   XXooo",
"   XXXooX                                  XXooo",
"   XXXoX                                   XXooo",
"   XXXX                                    XXooo",
"   XXXXXXXXXXXXXXXXXXXXXXXXXXXXXXXXXXXXXXXXXXooo",
"   XXXXXXXXXXXXXXXXXXXXXXXXXXXXXXXXXXXXXXXXXXooo",
"  Xooooooooooooooooooooooooooooooooooooooooooooo",
" Xoooooooooooooooooooooooooooooooooooooooooooooo",
"Xooooooooooooooooooooooooooooooooooooooooooooooo"};
