/* XPM */
static char * dirtsplash_xpm[] = {
"48 48 5 1",
" 	c #808000",
".	c blue",
"X	c navy",
"o	c #008000",
"O	c #008080",
"            .                                   ",
"    X  X XXXX. .     . . . o  X X      .    .O  ",
"   .Oooo XXXXXX..X...OOO         o              ",
" ..  ...O    XX XOOOOOX.. ...OO. .      XXX...  ",
"       .O    oooOOXXX XX.      .  .     .  X    ",
"X.X. ..OO       OoooXXX.   XX. XX.X ..O..   ..X ",
" X. .O..  .      . ..oo.    .X X..... .     ..X ",
"    ...   ....      . ...    XX ....X      ...oo",
"        ..XXXX    OOOOOO O  .  o XX      .X.X.. ",
"  ...        .   O O  .  OO ... .oo        XXXX ",
" .X..    .. o..OOXX X   . . .  .. .   oo  XX XX ",
"XX    .          .  X... .. X  O     ..O    XX  ",
" X  .O .            . o    X   X    .     O     ",
"    .O    .O   .....  .  . .XX X .  .     .. .  ",
" .  .          .X  X... . .   o o X O.     O.   ",
"    O         X  . .  . O.      .ooX  XX . O  . ",
"               .  .X O ..O         o.    .    . ",
" .  ..          ...O  .. .      ... ..O   o  XX ",
"  O .     O  . . .O..o.  .X. O.  X...      OooX ",
"  .   X   OX .   .  ...  OO  oo   .  .   .      ",
" O.       .X X.XO.. .  OO    .. O. o..  XX    . ",
" O.      ...X   O..     .O.     ..  .o o .    . ",
"      . O  O o . .  O.. ..O  .O  . O       o    ",
"     ...  .O. . .  O .O.O     O ..   . .   .O . ",
"  .X  .XO..O  . ... O O. . . .. ..   .     .O.  ",
"    ..XX    .   .. .  . .  .    X .    .        ",
"  .  ..oO .OX.  O.  .  ..O         O  O.    O . ",
"  .    . ..O.X..   X..OO   . . oX. .    .    .. ",
"OO     .     .   XX .    .     ..  .  O.   XO . ",
"          .....OO    .  . . .   ..O     .. XO X ",
" O .     . . .         . ..  ....OO     o  o    ",
" OX        .  .      O... ..  X. O     .. .O    ",
"  O. ..      X.   .  O OOO    XO .  O      O... ",
"   .O  X   OXX .    X... .    O .    . X.O . .. ",
"   O .o    OO . X  X   . .    . O   .    X X... ",
"  . O... o o  .    X            .OO     XX  XX. ",
"  .  O  .  ..  O..o  X..    X .OO .     ..oXXXX ",
"   X O O .      OO..       X OOOX..      .O Oo  ",
"  o    O. .     .OO. .O.  . .. . XX.   . ...    ",
" .  . o .    .  .  O O    OOo  oooX X.      .   ",
"      ..     XXXXXX X    .  .  .  .ooXX..  O .. ",
".    ..     .OoXX X             ... o.      .X. ",
" ...  ..   .. .O.Oo X .   .  X                  ",
" X OX . . .. ..O   .OO o..    O X        O.   o ",
"   o  ..O X X. .   .. .. ..O OOX XX        .... ",
"      O OXXX  X    .    O    O o X   OO.. .X  . ",
" .X  .          .X    O     . . .  oO   X XXXX  ",
" XXX          o   .         ..     .  o X       "};
