/* XPM */
static char * dooryellow_xpm[] = {
"48 48 5 1",
" 	c #C0C0C0",
".	c #808000",
"X	c #808080",
"o	c black",
"O	c yellow",
"                                               .",
"                                              Xo",
"                                             Xoo",
"   XXXXXXXXXXXXXXXXXXXXXXXXXXXXXXXXXXXXXXXXXXooo",
"   XXXXXXXXXXXXXXXXXXXXXXXXXXXXXXXXXXXXXXXXXXooo",
"   XXXXXXXXXXXXXXXXXXXXXXXXXXXXXXXXXXXXXXXXXXooo",
"   XXXooooooooooooooooooooooooooooooooooooXXXooo",
"   XXXoooooooooooooooooooooooooooooooooooX XXooo",
"   XXXooooooooooooooooooooooooooooooooooX  XXooo",
"   XXXoooOOOOOOOOOOOOOOOOOOOOOOOOOOOOOOO   XXooo",
"   XXXoooOOOOOOOOOOOOOOOOOOOOOOOOOOOOOOO   XXooo",
"   XXXoooOOOOOOOOOOOOooooooOOOOOOOOOOOOO   XXooo",
"   XXXoooOOOOOOOOOOOooooooooOOOOOOOOOOOO   XXooo",
"   XXXoooOOOOOOOOOOooooooooooOOOOOOOOOOO   XXooo",
"   XXXoooOOOOOOOOOooooooooooooOOOOOOOOOO   XXooo",
"   XXXoooOOOOOOOOOooooooooooooOOOOOOOOOO   XXooo",
"   XXXoooOOOOOOOOOooooooooooooOOOOOOOOOO   XXooo",
"   XXXoooOOOOOOOOOooooooooooooOOOOOOOOOO   XXooo",
"   XXXoooOOOOOOOOOooooooooooooOOOOOOOOOO   XXooo",
"   XXXoooOOOOOOOOOooooooooooooOOOOOOOOOO   XXooo",
"   XXXoooOOOOOOOOOOooooooooooOOOOOOOOOOO   XXooo",
"   XXXoooOOOOOOOOOOOooooooooOOOOOOOOOOOO   XXooo",
"   XXXoooOOOOOOOOOOOOooooooOOOOOOOOOOOOO   XXooo",
"   XXXoooOOOOOOOOOOOOOooooOOOOOOOOOOOOOO   XXooo",
"   XXXoooOOOOOOOOOOOOOooooOOOOOOOOOOOOOO   XXooo",
"   XXXoooOOOOOOOOOOOOooooooOOOOOOOOOOOOO   XXooo",
"   XXXoooOOOOOOOOOOOOooooooOOOOOOOOOOOOO   XXooo",
"   XXXoooOOOOOOOOOOOOooooooOOOOOOOOOOOOO   XXooo",
"   XXXoooOOOOOOOOOOOOooooooOOOOOOOOOOOOO   XXooo",
"   XXXoooOOOOOOOOOOOooooooooOOOOOOOOOOOO   XXooo",
"   XXXoooOOOOOOOOOOOooooooooOOOOOOOOOOOO   XXooo",
"   XXXoooOOOOOOOOOOOooooooooOOOOOOOOOOOO   XXooo",
"   XXXoooOOOOOOOOOOOooooooooOOOOOOOOOOOO   XXooo",
"   XXXoooOOOOOOOOOOooooooooooOOOOOOOOOOO   XXooo",
"   XXXoooOOOOOOOOOOooooooooooOOOOOOOOOOO   XXooo",
"   XXXoooOOOOOOOOOOooooooooooOOOOOOOOOOO   XXooo",
"   XXXoooOOOOOOOOOOooooooooooOOOOOOOOOOO   XXooo",
"   XXXoooOOOOOOOOOOOOOOOOOOOOOOOOOOOOOOO   XXooo",
"   XXXoooOOOOOOOOOOOOOOOOOOOOOOOOOOOOOOO   XXooo",
"   XXXoooOOOOOOOOOOOOOOOOOOOOOOOOOOOOOOO   XXooo",
"   XXXooX                                  XXooo",
"   XXXoX                                   XXooo",
"   XXXX                                    XXooo",
"   XXXXXXXXXXXXXXXXXXXXXXXXXXXXXXXXXXXXXXXXXXooo",
"   XXXXXXXXXXXXXXXXXXXXXXXXXXXXXXXXXXXXXXXXXXooo",
"  Xooooooooooooooooooooooooooooooooooooooooooooo",
" Xoooooooooooooooooooooooooooooooooooooooooooooo",
"Xooooooooooooooooooooooooooooooooooooooooooooooo"};
