/* XPM */
static char * explosion_xpm[] = {
"48 48 7 1",
" 	c white",
".	c #C0C0C0",
"X	c #808080",
"o	c red",
"O	c yellow",
"+	c #800000",
"@	c #808000",
"                                               .",
" ..............................................X",
" .............o..o............O................X",
" ...............o...........oO.o............O..X",
" ..............OO...........OO............OO...X",
" .............oOO..........oO.............O....X",
" .........oo...oOO.........oO.........OOOOO....X",
" .......o..oo....oO.o......oO........OO.OO.....X",
" ......oO+ooo.....OO.o....oO..........OOO......X",
" ......OOOOoooo...OO++....oo.....o..OOOO.......X",
" ......oOOOoOoooo..OO++..oOooo..oooOOOOOo......X",
" ....o....OOOOoooo.OOO++.OOoo..oo..OOoOo.......X",
" ....O.....oOOOooooOOOO+.OOO+o.o.o..ooOOoO.....X",
" ...oOO.ooo..oOooo.oOOOO+OOO+..ooo.OOooO...o...X",
" .....OOooooo...ooooOOOooOoooo.ooooOoo..oo.....X",
" ......OOoooooo..ooooOOoo..o+...o.oooo..ooo....X",
" .....o+oO..+ooo..oo.OOOooooo.oo.ooooo.ooo@.o..X",
" ....++..Oo.o+ooo.oo+OOO.ooo..oooo.oo..oo@@....X",
" ..o.+ooooo..oooo+oo+O+OOOo+.+o.++...oooo@.....X",
" .....o..oOoooooooooooooOoOo.o.oo+ooooooO.@o...X",
" ...+o..o.OO..+ooo+o@oo@OoOOoo...o+oooOo@..o...X",
" ...+ooo..OO..+oooo+@oooOooOooo.oooooOo@@..+...X",
" ...oooooooo.oooooooooo@OoooooOo++oooO@@oo.....X",
" ..o....+oOoo+@oooO+oooOOooooO++ooOooo@@.......X",
" ...o+o.........oooooooOOooOooooooooooo..@+.O..X",
" ..oooooo+ooOoo.o@o+oOOoOOooOooo++ooo...OOOOO..X",
" ...oooOo+oooo@ooooOOOoOOOOOOo+oOoo....OOOO....X",
" .oo..++oo+oOoooooooOoOOOOOOOOooooo..oOooo.....X",
" ....O ++o+@@ooooooOOO  OOOO OO+oooooooooo.o...X",
" ..o.OO@++O+oo@ooooOOOo      OoOO+oooO++oooo...X",
" ....OO@@@O+o@@oooOOoOO      OOOO++oooO@@Oo....X",
" ...oOOo@OO+oooo..OO         OOOoo..ooo@oO.....X",
" ....ooo@O+oo...ooO o      O OOooo...Oo@@OO....X",
" ....oo@@OooO.oOo+o         OOooo...oo.+o@@....X",
" .....OOOOo...o+ooOooOOOO  Oo+++oooo.o.........X",
" ....OO@@o..@@+ooooooooOOOOooooooooo+ooo.......X",
" ....OO.@o.+++Ooo+oo@ooo+oooooo.ooo+ooo...+....X",
" ...OO..o..o+ooOooooooooooooooo.......o..oo....X",
" ..O......o.+.ooooo..oooooooooooooo............X",
" ..........@o........oOooooo+ooo@oooo..........X",
" .............oo+....oooooooooo@.......++......X",
" ..........o......o+..+++oOOoo..OO.Oooo........X",
" ...............+o.............ooOOO...........X",
" .....................o.....OO.................X",
" ..............................................X",
" ..............................................X",
" ..............................................X",
".XXXXXXXXXXXXXXXXXXXXXXXXXXXXXXXXXXXXXXXXXXXXXXX"};
