/* XPM */
static char * fire_xpm[] = {
"48 48 8 1",
" 	c None",
".	c #FFFFFF",
"+	c #C0C0C0",
"@	c #808080",
"#	c #800000",
"$	c #FF0000",
"%	c #FFFF00",
"&	c #808000",
"...............................................+",
".++++++++++++++++++++++++++++++++++++++++++++++@",
".++++++++++++++++++++++++++++++++++++++++++++++@",
".++++++++++++++++++++++++++++++++++++++++++++++@",
".++++++++++++++++++++++++++++++++++++++++++++++@",
".++++++++++++++++++++++++++++++++++++++#+++++++@",
".+++++++++++++++++++++++++++++++++++++##+++++++@",
".++++++++#++++++++++++++++++++++++++++##+++++++@",
".++++++++#+++++++++++++++++++++++++++++###+++++@",
".++++++++#++++++++++##+++++++++++++++++#$#+++++@",
".+++++++++#++++++++++##+++++++++++++++$$$$+++++@",
".+++++++++$#++++++++++##++++++++++++++$$%$$#+++@",
".++++++++++##+++++++$+##++++#++++++++++$$%$$#++@",
".++++++++++$#+++++++$+###+++#+++++++++++$$$$##+@",
".+++++$+++++$#+++++$%+#%#+++#+++++++++++#$$$$#+@",
".+++++$+++++#$#+++$%%##%#+++##+++++++++#$$$$$#+@",
".+++++$#+%++#$$#+$$%+#%##$+#$$++++++++##$$&&$#+@",
".++++##++%%++#$$#+&&#%##+$+#$$++#++++##$$&&$$$#@",
".+++##++++%++#$$##$$#%#&$$+###++##+++#$$&&&&$$#@",
".+++#+++++%%++#$$##$&$$&$$#$##+++#++##$.%&&$$#+@",
".+++#$++++%%++#$$$##&$#&$%$$#%+++##+#$%%&$$$##+@",
".+++#$##++%%++#$$$$#&$#&$%$$%%%++###$%%&&$%##++@",
".+++#$$#++%%+##$$$$#$$#&$%$$%%%###%#$%&&$$$#+++@",
".++++#$##+%%+#&$$$%#$%#&$$$.%%##&&%#$%&&$$#++++@",
".++++#$%##$%%#&$$$$#$%##%$$%%$#$&&%#$$$&&&#++++@",
".++++#$%$#%$%#&$$&$#$%%##$&%%$#$##$%$$&&%%#++++@",
".++++##%%#%%%&&$&&$#$$$+###.%$#$%#$##$%%%##++++@",
".+++++##$$#%%&&$&&$#&$$$%%#$%$#$$#$$#$%##++++++@",
".++++%.##$#&&&$$&$$#&&$$$%#$%$$#$#$##$$#%$+++++@",
".++++%%&##%#$$&&&$%#&&&$+##$+%##$#$$%%##$$+++++@",
".++++%%&&&##$&&&$$##&&$$##+$$%%$$##%.%%&&%$++++@",
".++++%%$&&##$&&$$%#&&&$&#&$$$%%+$%#%%%%&&%+++++@",
".++++$$$&&#$$%$$%##&$&&&#&$$$%#$$%#$%%#&&%%##++@",
".++++$$&&&#%%&$%##&&&&&#&&&$%##+$$##%%##&&&$$#+@",
".+++$$$&&##%&&&#%%%&&&&#&&&$%####$$##$+##&$$$##@",
".++$$#$&&##%&&#%%%&&&%%#&&&$%$$###$##$$&##$$%%#@",
".++$#$$+&#####%%%#$&&%%##&$$$&$#####$$$&###$%%#@",
".+#$#%%%+#$$#+%%%#$&$%$$#&$$&&$###$$$$&&#$$$%%#@",
".+#&#%##$$$&#$$%##$$$$%$&&&$#&$###$$%%###$+$###@",
".##&#%$$$&$&#$$####$$$%$&&&&#&&#&$$$%%$#$$%+###@",
".#&$#%$&&&$&&&$#########$$$$#&&&&$$$$%%##%%##++@",
".+#&####$#$$$&&#####%%###$%%#$$%%%+%$$$#####+++@",
".+######$##$$$$$##$#%+$+#$$%%+$$$%%%+$$$$$##+++@",
".+++####++$$$+$+##$$%$$+###%%%$$$###+$$$$$##+++@",
".++++###+++++++++++$$$+++++$####$+++++++###++++@",
".++++++++++++++++++++++++++$$$$$$++++++++++++++@",
".++++++++++++++++++++++++++++++++++++++++++++++@",
"+@@@@@@@@@@@@@@@@@@@@@@@@@@@@@@@@@@@@@@@@@@@@@@@"};
