/* XPM */
static char * fireball_w_xpm[] = {
"48 48 7 1",
" 	c None",
".	c red",
"X	c #800000",
"o	c white",
"O	c yellow",
"+	c #008080",
"@	c #808000",
"                                                ",
"                                                ",
"                                                ",
"                                                ",
"                                                ",
"                                                ",
"                                                ",
"                                                ",
"                                                ",
"                                                ",
"                                                ",
"                                                ",
"                                                ",
"          .XXXX..                               ",
"        XXXX.....o                       XXX    ",
"      .OOXX........oo      XXOOX       .X       ",
"     ......OO..OO.OOOo XXXX...OXO    .XX        ",
"     OO....OOO...OOOoo...O..O+XOX....XOO        ",
"    O.....OOO......Oo..OOOXXX++XOX  X           ",
"   ...OOOOOOOOO.........oOOo....XXX             ",
"   ..OOOOOooooO......oOOOOOOOOXXX..XXXX         ",
"  ...OOoooooooOOO.O..X.....OOOOXX..X            ",
"  ..OOOOOooooooOOOOOo.....XXOO.+OOO             ",
"  O..OoOOoooooOOOOOO.....OOOX...++       @      ",
"  OO.OoooooooOO.......OOOOooX .OOO    @@        ",
"  OOOOooooooOO.....OOOOoOO@@XXOXX...OO          ",
"  OOOoooooooOOO..OOOOOO...OOOOO....OO           ",
"  O.OOOOooooOO...XOOO.X.OOXXXX..@.@             ",
"  O.OOOOOooooOOo....OO.XX....OOX..         .    ",
"  ....OOOOooooOOOOOOOO......OOOXOOO             ",
"   OX.oOOOOOoooooOOOOX.OOO.@@OO..XO    ..  XX   ",
"   OO..ooOOOOoooOOO..OOoooooooOO..XX  ...XXOXX  ",
"    OO....OOOOOOOO...OOOOOO..OoOOO..X..O..X     ",
"     OO...oOOOOOO..OOOO XO@..OOOoOO...O..X.     ",
"     .......o..O.....   XXXX.O.OOoOOO....       ",
"      .............         XX..OOOo...X        ",
"        XXXO..OO..           XX......XX         ",
"          ..oOOO.             XX..XXXX          ",
"                                XX              ",
"                                                ",
"                                                ",
"                                                ",
"                                                ",
"                                                ",
"                                                ",
"                                                ",
"                                                ",
"                                                "};
