/* XPM */
static char * fireball_n_xpm[] = {
"48 48 7 1",
" 	c None",
".	c red",
"X	c yellow",
"o	c #800000",
"O	c white",
"+	c #808000",
"@	c #008080",
"                                                ",
"                                                ",
"                  .XXXXXX..                     ",
"                XX...XXX.....                   ",
"               XXo.XXXX..X...X                  ",
"             .XX...XXOXXXXXX..X.                ",
"            ..X..OXXXOOOOXXXX.X..               ",
"            ....OXXXXOOOXXOXX...X               ",
"           o....OXXXOOOOXXOXX...Xo              ",
"           o....XXXOOOOOOOOXX...oo              ",
"          .o..OXXXOOOOOOOOOOXX..oo.             ",
"          .X..XXXXOOOOOOOOOOXXXX.oo             ",
"          O..OXXXOOOXXXOOOOOXXXX..o             ",
"          X...XXOOOXXXXXOOOOX.X...o             ",
"          XX..XXOOXX.X.XXOXXX.....o             ",
"          XX.XXXOOXO....XXX....X...             ",
"          ....XXXOX.....XXX....X...             ",
"           ....XXXX.oX..XX....X..O              ",
"            ....XXX.XX..XXX...XX.               ",
"             .X..XX.XXX.XX...XXXO               ",
"             .X..XXXXXX..O...OOXO               ",
"              XXXoXX.XX...oO..OO                ",
"              XXX...oXXX...X...                 ",
"               XOX.o..OX...X.X.o                ",
"             ooXOX.oX.XX...XOX.o                ",
"             oXXOX..X.XXX..XXXXo                ",
"             o+XO...oX+OXo.XXo.o                ",
"             o..O+..oX+OXoXXOo..o               ",
"            o...O+X.oXoooXXX.oX.o               ",
"           ooXXXOXXXoXo .XXX.@@.X               ",
"          oo..XOXXXX.XX...Xo.@oXX               ",
"          o..XXXX.oo..oX.@oo.oXoo               ",
"         o..XXOX..X.+.oX@XoooXoX                ",
"         o..XOXX.oX....X@X..oo.                 ",
"          o.XXX.oXX +..  X..o .                 ",
"          o.OX..o    X.   oo  .                 ",
"          o..X.o     XX    o o.                 ",
"          oo....      X    o  o.                ",
"           o..X..      +   o  Xo                ",
"            o..X..     +      Xo.               ",
"             .....              o               ",
"              o.o       +        o              ",
"              .oo                o              ",
"                Xo .             o              ",
"                oo                              ",
"                o                               ",
"                                                ",
"                                                "};
