/* XPM */
static char * fireball_s_xpm[] = {
"48 48 7 1",
" 	c None",
".	c #800000",
"X	c red",
"o	c yellow",
"O	c #808000",
"+	c white",
"@	c #008080",
"                                                ",
"                                                ",
"                               .                ",
"                              ..                ",
"              .             X .o                ",
"              .                ..X              ",
"              .        O       .X.              ",
"               .              XXXXX             ",
"               X.o      O     XXoXX.            ",
"                .o  .   O      XXoXX.           ",
"                X.  .    o      XXXX..          ",
"                 X. .    oo     .XoXX.          ",
"                 X  ..   Xo    .XXo+X.          ",
"                 X .XXo  XXO oo.XoooX.          ",
"                 X..XXo@oXXXXo.Xoo+oXX.         ",
"                o.o...o@o.XOXoXXo+ooXX.         ",
"               ..o.X..@Xo.XX..XooooXX.          ",
"               oo.@X.oXXXooXoooo+oXX..          ",
"               oX@@XoooX .o.ooo+ooo..           ",
"               .Xo.Xooo...o.XoO+XXX.            ",
"               .XX.+oo.o+Oo.XXO+XX.             ",
"                .X.ooX.o+Oo.XXX+oO.             ",
"                .ooooXXoooXoXXo+oo.             ",
"                .Xo+oXXXooXo.Xo+o..             ",
"                .XoXoXXXo+XX.Xo+o               ",
"                 XXXoXXXooo.XXXooo              ",
"                ++XX+.XXXooXoo.ooo              ",
"               +o++XXX+XXooooooXXoX             ",
"               +oooXXXooXoooXooXXoX             ",
"               XooXXXoooXXooXoooXXXX            ",
"              +XXoXXXXooXXo.XooooXXXX           ",
"             XXXoXXXXoooXXXXXo+oooXXXX          ",
"             XXXoXXXXoooXXXX+o++oooXoo          ",
"             .XXXXXooo+ooXoXoo++ooXXoo          ",
"             .XXXoXo++++ooooo+++ooXXXo          ",
"             .XXoooo+++++ooo+++ooo+XX+          ",
"             ..Xoooo++++++++++ooooXXoX          ",
"             X..XXoo++++++++++ooo+XX.X          ",
"              ..XXXoo++++++++oooXXXX.           ",
"              .oXXXoo+oo++++ooo+XXXX.           ",
"               oXXXoo+oo+++oooo+XXXX            ",
"               XXoXoooo++++ooo+XXoXX            ",
"                XoXXoooooo+ooXXXooX             ",
"                  oXXXoXXooooX.oo               ",
"                   XXXXXoooXXXoo                ",
"                     XXooooooX                  ",
"                                                ",
"                                                "};
