/* XPM */
static char * fireball_e_xpm[] = {
"48 48 7 1",
" 	c None",
".	c #800000",
"X	c red",
"o	c yellow",
"O	c white",
"+	c #808000",
"@	c #008080",
"                                                ",
"                                                ",
"                                                ",
"                                                ",
"                                                ",
"                                                ",
"                                                ",
"                                                ",
"                                                ",
"              ..                                ",
"          ....XX..             XoooOXX          ",
"         ..XXXXXX..           XXooXXo...        ",
"        .XXXOoooXX..         XXXXXXXXXXXXX      ",
"       XXXXoooOooXoX....   XXXXXoXXOXXXXXXX     ",
"     X.XXoXXXooOoooXX+o. ooooXXooooooOXXXoo     ",
"     .XXoXX.XXoooOoXXooooooXXXooooooooXXXXoo    ",
"  ..o..XXX  ..XXooOOOOOOOooXXoooOOOooooOOXXoo   ",
"   ..  XX    o.XXoo++XoooX.ooooOOOOOoooooOX.o   ",
"             ooo.oooXXXXXXooooooooOOOOooooXXXX  ",
"    X         XX.ooXXXX..XooXXXXOooOOOOoooooXo  ",
"             +X+XX....ooX.Xooo.XXXooOOOOooooXo  ",
"           ooXXXXoooooXXXooooooXXoooOOOOOOOooo  ",
"          ooXXX..o..++ooOooooXXXXXooOOOOOOoooo  ",
"        ++    oooX .OOooooXXXXXXXooOOOOOOOoXoo  ",
"      +       @@XXX.oooXXXXXooooooOOOOOooOoXXo  ",
"             ooo@Xoo..XXXXXOoooooOOOOOOoooooXX  ",
"            .XX..ooooXXXXX.XXoXoooOOOOOOOooXXX  ",
"         ....XX...ooooooooOXXXXXXoOOOOoooooXX   ",
"             ...XXXXOooOXXXXXXXXXoooooooooXXX   ",
"           .  .o.@@...oooXXOoXXXXXXoooXXXXXo    ",
"        oo.XXXX.o.@oXXoXXXOOoooXXXoooXXXXoo     ",
"        ..X    o.oXXX.... OoooXooXXooXXXXXX     ",
"       .X       .oo..      OOXXXXXXXX..ooX      ",
"    ...                       OXXXXX....        ",
"                               XX....X          ",
"                                                ",
"                                                ",
"                                                ",
"                                                ",
"                                                ",
"                                                ",
"                                                ",
"                                                ",
"                                                ",
"                                                ",
"                                                ",
"                                                ",
"                                                "};
