/* XPM */
static char * ghostwall_xpm[] = {
"48 48 6 1",
" 	c None",
".	c #008080",
"c	c #008080",
"g	c #C0C0C0",
"h	c #808080",
"k	c #00FFFF",
"k.k.k.k.k.k.k.k.k.k.k.k.k.k.k.k.k.k.k.k.k.k.k.kc",
".k.k.k.k.k.k.k.k.k.k.k.k.k.k.k.k.k.k.k.k.k.k.kc.",
"k.k.k.k.k.k.k.k.k.k.k.k.k.k.k.k.k.k.k.k.k.k.kc.h",
".k.cgcgcgcgcgcgcgcgcgcgcgcgcgcgcgcgcgcgcgcgcg.h.",
"k.kgcg.gcg.gcg.gcg.gcg.gcg.gcg.gcg.gcg.gcg.gch.h",
".k.cgcgcgcgcgcgcgcgcgcgcgcgcgcgcgcgcgcgcgcgcg.h.",
"k.kg.gcg.gcg.gcg.gcg.gcg.gcg.gcg.gcg.gcg.gcg.h.h",
".k.cgcgcgcgcgcgcgcgcgcgcgcgcgcgcgcgcgcgcgcgcg.h.",
"k.kgcg.gcg.gcg.gcg.gcg.gcg.gcg.gcg.gcg.gcg.gch.h",
".k.cgcgcgcgcgcgcgcgcgcgcgcgcgcgcgcgcgcgcgcgcg.h.",
"k.kg.gcg.gcg.gcg.gcg.gcg.gcg.gcg.gcg.gcg.gcg.h.h",
".k.cgcgcgcgcgcgcgcgcgcgcgcgcgcgcgcgcgcgcgcgcg.h.",
"k.kgcg.gcg.gcg.gcg.gcg.gcg.gcg.gcg.gcg.gcg.gch.h",
".k.cgcgcgcgcgcgcgcgcgcgcgcgcgcgcgcgcgcgcgcgcg.h.",
"k.kg.gcg.gcg.gcg.gcg.gcg.gcg.gcg.gcg.gcg.gcg.h.h",
".k.cgcgcgcgcgcgcgcgcgcgcgcgcgcgcgcgcgcgcgcgcg.h.",
"k.kgcg.gcg.gcg.gcg.gcg.gcg.gcg.gcg.gcg.gcg.gch.h",
".k.cgcgcgcgcgcgcgcgcgcgcgcgcgcgcgcgcgcgcgcgcg.h.",
"k.kg.gcg.gcg.gcg.gcg.gcg.gcg.gcg.gcg.gcg.gcg.h.h",
".k.cgcgcgcgcgcgcgcgcgcgcgcgcgcgcgcgcgcgcgcgcg.h.",
"k.kgcg.gcg.gcg.gcg.gcg.gcg.gcg.gcg.gcg.gcg.gch.h",
".k.cgcgcgcgcgcgcgcgcgcgcgcgcgcgcgcgcgcgcgcgcg.h.",
"k.kg.gcg.gcg.gcg.gcg.gcg.gcg.gcg.gcg.gcg.gcg.h.h",
".k.cgcgcgcgcgcgcgcgcgcgcgcgcgcgcgcgcgcgcgcgcg.h.",
"k.kgcg.gcg.gcg.gcg.gcg.gcg.gcg.gcg.gcg.gcg.gch.h",
".k.cgcgcgcgcgcgcgcgcgcgcgcgcgcgcgcgcgcgcgcgcg.h.",
"k.kg.gcg.gcg.gcg.gcg.gcg.gcg.gcg.gcg.gcg.gcg.h.h",
".k.cgcgcgcgcgcgcgcgcgcgcgcgcgcgcgcgcgcgcgcgcg.h.",
"k.kgcg.gcg.gcg.gcg.gcg.gcg.gcg.gcg.gcg.gcg.gch.h",
".k.cgcgcgcgcgcgcgcgcgcgcgcgcgcgcgcgcgcgcgcgcg.h.",
"k.kg.gcg.gcg.gcg.gcg.gcg.gcg.gcg.gcg.gcg.gcg.h.h",
".k.cgcgcgcgcgcgcgcgcgcgcgcgcgcgcgcgcgcgcgcgcg.h.",
"k.kgcg.gcg.gcg.gcg.gcg.gcg.gcg.gcg.gcg.gcg.gch.h",
".k.cgcgcgcgcgcgcgcgcgcgcgcgcgcgcgcgcgcgcgcgcg.h.",
"k.kg.gcg.gcg.gcg.gcg.gcg.gcg.gcg.gcg.gcg.gcg.h.h",
".k.cgcgcgcgcgcgcgcgcgcgcgcgcgcgcgcgcgcgcgcgcg.h.",
"k.kgcg.gcg.gcg.gcg.gcg.gcg.gcg.gcg.gcg.gcg.gch.h",
".k.cgcgcgcgcgcgcgcgcgcgcgcgcgcgcgcgcgcgcgcgcg.h.",
"k.kg.gcg.gcg.gcg.gcg.gcg.gcg.gcg.gcg.gcg.gcg.h.h",
".k.cgcgcgcgcgcgcgcgcgcgcgcgcgcgcgcgcgcgcgcgcg.h.",
"k.kgcg.gcg.gcg.gcg.gcg.gcg.gcg.gcg.gcg.gcg.gch.h",
".k.cgcgcgcgcgcgcgcgcgcgcgcgcgcgcgcgcgcgcgcgcg.h.",
"k.kg.gcg.gcg.gcg.gcg.gcg.gcg.gcg.gcg.gcg.gcg.h.h",
".k.cgcgcgcgcgcgcgcgcgcgcgcgcgcgcgcgcgcgcgcgcg.h.",
"k.kgcg.gcg.gcg.gcg.gcg.gcg.gcg.gcg.gcg.gcg.gch.h",
".kc.h.h.h.h.h.h.h.h.h.h.h.h.h.h.h.h.h.h.h.h.h.h.",
"kc.h.h.h.h.h.h.h.h.h.h.h.h.h.h.h.h.h.h.h.h.h.h.h",
"c.h.h.h.h.h.h.h.h.h.h.h.h.h.h.h.h.h.h.h.h.h.h.h."};
