/* XPM */
static char * glider_e_xpm[] = {
"48 48 6 1",
" 	c None",
".	c black",
"X	c white",
"o	c #808080",
"O	c #C0C0C0",
"+	c #800000",
"                                                ",
"                                                ",
"                                                ",
"                                                ",
"        ...................                     ",
"        .XXXXXXXXXXXXXXXXXX..                   ",
"       .XXXXXXXXXXXXXXXXXXXXX..                 ",
"       .XXXXXXXXXXXXXXXXXXXXXXX..               ",
"      .o.OOOOOOOOOOOOOOOOOOOOOOOO.              ",
"      .oo.OOOOOOOOOOOOOOOOOOOOOOOO.             ",
"      .oo.OOOOOOOOOOOOOOOOOOOOOOOOO.            ",
"      .oo.OOOOOOOOOOOOOOOOOOOOOOOOOO.           ",
"      ....XOXOXOXOXOXOXOXOOOOOOOOOOOO.          ",
"      ....XXXXXXXXXXXXXXXXOXOXOOOOOOO.          ",
"      .+...OOOOOOOOOOOOOOOOOOOOOOOOOOO.         ",
"      .+...OOOOOOOOOOOOOOOOOOOOOOOOOOO.         ",
"      ....ooooooooooooooooooooOOOOOOOOO.        ",
"      ....oooooooooooooooOoOoOOOOOOOOOO.        ",
"      .oo.OOOOOOOOOOOOOOOOOOOOOOOOOOOOOO.       ",
"      ..o.XXXXXXXXXXXXXXXXXXXXXXXXXXXXXX.       ",
"      .o..................................      ",
"      .oo..XOXOXOXOXOXOXOXOXOXOXOXOXOXOXO.      ",
"      ..oo.OXOXOXOXOXOXOXOXOXOXOXOXOXOXOXO.     ",
"      .o.o.XOXOXOXOXOXOXOXOXOXOXOXOXOXOXOX.     ",
"      ..oo.OXOXOXOXOXOXOXOXOXOXOXOXOXOXOXO.     ",
"      .oo..XOXOXOXOXOXOXOXOXOXOXOXOXOXOXO.      ",
"      .o..................................      ",
"      ..o.oooooooooooooooooooooooooooooo.       ",
"      .oo.OOOOOOOOOOOOOOOOOOOOOOOOOOOOOO.       ",
"      ....XOXOXOXOXOXOXOXOOOOOOOOOOOOOO.        ",
"      ....XXXXXXXXXXXXXXXXOXOXOOOOOOOOO.        ",
"      .+...OOOOOOOOOOOOOOOOOOOOOOOOOOO.         ",
"      .+...OOOOOOOOOOOOOOOOOOOOOOOOOOO.         ",
"      ....ooooooooooooooooooooOOOOOOO.          ",
"      ....oooooooooooooooOoOoOoOoOoOo.          ",
"      .oo.OoOoOoOoOoOoOoOoOoOoOoOoOo.           ",
"      .oo.oOoOoOoOoOoOoOoOoOoOoOoOo.            ",
"      .oo.OoOoOoOoOoOoOoOoOoOoOoOo.             ",
"      .o.OoOoOoOoOoOoOoOoOoOoOoOo.              ",
"       .ooooooooooooooooooooooo..               ",
"       .ooooooooooooooooooooo..                 ",
"        .oooooooooooooooooo..                   ",
"        ...................                     ",
"                                                ",
"                                                ",
"                                                ",
"                                                ",
"                                                "};
