/* XPM */
static char * glider_s_xpm[] = {
"48 48 6 1",
" 	c None",
".	c black",
"X	c #808080",
"o	c #800000",
"O	c white",
"+	c #C0C0C0",
"                                                ",
"                                                ",
"                                                ",
"                                                ",
"                                                ",
"                                                ",
"        ...............................         ",
"      ..XXXX..oo..X.XX.X.XX.X..oo..XXXX..       ",
"    ..OO.XXX......XX.XX.XX.XX......XXX.XX..     ",
"    .OOO+.............XXX.............+XXX.     ",
"    .OOO++++OO..XX+O.......X+OO..XX+X+XXXX.     ",
"    .OOO+++++O++XX+O.O+O+O.X++O++XXX+X+XXX.     ",
"    .OOO++++OO++XX+O.+O+O+.X+OO++XX+X+XXXX.     ",
"    .OOO+++++O++XX+O.O+O+O.X++O++XXX+X+XXX.     ",
"    .OOO++++OO++XX+O.+O+O+.X+OO++XX+X+XXXX.     ",
"    .OOO+++++O++XX+O.O+O+O.X++O++XXX+X+XXX.     ",
"    .OOO++++OO++XX+O.+O+O+.X+OO++XX+X+XXXX.     ",
"    .OOO+++++O++XX+O.O+O+O.X++O++XXX+X+XXX.     ",
"    .OOO++++OO++XX+O.+O+O+.X+OO++XX+X+XXXX.     ",
"    .OOO+++++O++XX+O.O+O+O.X++O++XXX+X+XXX.     ",
"    .OOO++++OO++XX+O.+O+O+.X+OO++XX+X+XXXX.     ",
"    .OOO+++++O++XX+O.O+O+O.X++O++XXX+X+XXX.     ",
"    .OOO++++OO++XX+O.+O+O+.X+OO++XX+X+XXXX.     ",
"    .OOO+++++O++XX+O.O+O+O.X++O++XXX+X+XXX.     ",
"    .OOO++++OO++XX+O.+O+O+.X+OO++XX+X+XXXX.     ",
"    .OOO+++++O++X++O.O+O+O.X++O++X+X+X+XXX.     ",
"    .OOO++++++++XX+O.+O+O+.X+++++XX+X+XXXX.     ",
"     .OO+++++O++X++O.O+O+O.X++O++X+X+X+XX.      ",
"     .OO++++++++XX+O.+O+O+.X+++++XX+X+XXX.      ",
"      .O+++++O++X++O.O+O+O.X++O++X+X+X+X.       ",
"      .O+++++++++++O.+O+O+.X++++++X+X+XX.       ",
"       .+++++++++++O.O+O+O.X+++++++X+X+.        ",
"       .+++++++++++O.+O+O+.X++++++X+X+X.        ",
"        .++++++++++O.O+O+O.X+++++++X+X.         ",
"         .+++++++++O.+O+O+.X++++++X+X.          ",
"          .++++++++O.O+O+O.X+++++++X.           ",
"           .+++++++O.+O+O+.X++++++X.            ",
"            ..+++++O.O+O+O.X+++++..             ",
"              ..+++O.+O+O+.X+++..               ",
"                ..+O.O+O+O.X+..                 ",
"                  ...+O+O+...                   ",
"                    ..+O+..                     ",
"                      ...                       ",
"                                                ",
"                                                ",
"                                                ",
"                                                ",
"                                                "};
