/* XPM */
static char * glider_w_xpm[] = {
"48 48 6 1",
" 	c None",
".	c black",
"X	c white",
"o	c #C0C0C0",
"O	c #808080",
"+	c #800000",
"                                                ",
"                                                ",
"                                                ",
"                                                ",
"                     ...................        ",
"                   ..XXXXXXXXXXXXXXXXXX.        ",
"                 ..XXXXXXXXXXXXXXXXXXXXX.       ",
"               ..XXXXXXXXXXXXXXXXXXXXXXX.       ",
"              .oooooooooooooooooooooooo.O.      ",
"             .oooooooooooooooooooooooo.O..      ",
"            .ooooooooooooooooooooooooo..O.      ",
"           .oooooooooooooooooooooooooo.O..      ",
"          .ooooooooooooXoXoXoXoXoXoXoX....      ",
"          .oooooooXoXoXXXXXXXXXXXXXXXX....      ",
"         .ooooooooooooooooooooooooooo...+.      ",
"         .ooooooooooooooooooooooooooo...+.      ",
"        .oooooooooOOOOOOOOOOOOOOOOOOOO....      ",
"        .ooooooooooOoOoOOOOOOOOOOOOOOO....      ",
"       .oooooooooooooooooooooooooooooo.O..      ",
"       .XXXXXXXXXXXXXXXXXXXXXXXXXXXXXX..O.      ",
"      .................................O..      ",
"      .oXoXoXoXoXoXoXoXoXoXoXoXoXoXoX...O.      ",
"     .oXoXoXoXoXoXoXoXoXoXoXoXoXoXoXo..O..      ",
"     .XoXoXoXoXoXoXoXoXoXoXoXoXoXoXoX.O.O.      ",
"     .oXoXoXoXoXoXoXoXoXoXoXoXoXoXoXo..O..      ",
"      .oXoXoXoXoXoXoXoXoXoXoXoXoXoXoX...O.      ",
"      .................................O..      ",
"       .OOOOOOOOOOOOOOOOOOOOOOOOOOOOOO..O.      ",
"       .oooooooooooooooooooooooooooooo.O..      ",
"        .ooooooooooooooXoXoXoXoXoXoXoX....      ",
"        .oooooooooXoXoXXXXXXXXXXXXXXXX....      ",
"         .ooooooooooooooooooooooooooo...+.      ",
"         .ooooooooooooooooooooooooooo...+.      ",
"          .oooooooOOOOOOOOOOOOOOOOOOOO....      ",
"          .OoOoOoOoOoOoOOOOOOOOOOOOOOO....      ",
"           .OoOoOoOoOoOoOoOoOoOoOoOoOo.O..      ",
"            .OoOoOoOoOoOoOoOoOoOoOoOoO..O.      ",
"             .OoOoOoOoOoOoOoOoOoOoOoOo.O..      ",
"              .OoOoOoOoOoOoOoOoOoOoOoOo.O.      ",
"               ..OOOOOOOOOOOOOOOOOOOOOOO.       ",
"                 ..OOOOOOOOOOOOOOOOOOOOO.       ",
"                   ..OOOOOOOOOOOOOOOOOO.        ",
"                     ...................        ",
"                                                ",
"                                                ",
"                                                ",
"                                                ",
"                                                "};
