/* XPM */
static char * glider_n_xpm[] = {
"48 48 6 1",
" 	c None",
".	c black",
"X	c #C0C0C0",
"o	c white",
"O	c #808080",
"+	c #800000",
"                                                ",
"                                                ",
"                                                ",
"                                                ",
"                                                ",
"                      ...                       ",
"                    ..XoX..                     ",
"                  ...XoXoX...                   ",
"                ..Xo.oXoXo.OX..                 ",
"              ..XXXo.XoXoX.OXXX..               ",
"            ..XXXXXo.oXoXo.OXXXXX..             ",
"           .XXXXXXXo.XoXoX.OXXXXXXO.            ",
"          .XXXXXXXXo.oXoXo.OXXXXXXXO.           ",
"         .XXXXXXXXXo.XoXoX.OXXXXXXOXO.          ",
"        .XXXXXXXXXXo.oXoXo.OXXXXXXXOXO.         ",
"       .XXXXXXXXXXXo.XoXoX.OXXXXXXOXOXO.        ",
"       .XXXXXXXXXXXo.oXoXo.OXXXXXXXOXOX.        ",
"      .oXXXXXXXXXXXo.XoXoX.OXXXXXXOXOXOO.       ",
"      .oXXXXXoXXOXXo.oXoXo.OXXoXXOXOXOXO.       ",
"     .ooXXXXXXXXOOXo.XoXoX.OXXXXXOOXOXOOO.      ",
"     .ooXXXXXoXXOXXo.oXoXo.OXXoXXOXOXOXOO.      ",
"    .oooXXXXXXXXOOXo.XoXoX.OXXXXXOOXOXOOOO.     ",
"    .oooXXXXXoXXOXXo.oXoXo.OXXoXXOXOXOXOOO.     ",
"    .oooXXXXooXXOOXo.XoXoX.OXooXXOOXOXOOOO.     ",
"    .oooXXXXXoXXOOXo.oXoXo.OXXoXXOOOXOXOOO.     ",
"    .oooXXXXooXXOOXo.XoXoX.OXooXXOOXOXOOOO.     ",
"    .oooXXXXXoXXOOXo.oXoXo.OXXoXXOOOXOXOOO.     ",
"    .oooXXXXooXXOOXo.XoXoX.OXooXXOOXOXOOOO.     ",
"    .oooXXXXXoXXOOXo.oXoXo.OXXoXXOOOXOXOOO.     ",
"    .oooXXXXooXXOOXo.XoXoX.OXooXXOOXOXOOOO.     ",
"    .oooXXXXXoXXOOXo.oXoXo.OXXoXXOOOXOXOOO.     ",
"    .oooXXXXooXXOOXo.XoXoX.OXooXXOOXOXOOOO.     ",
"    .oooXXXXXoXXOOXo.oXoXo.OXXoXXOOOXOXOOO.     ",
"    .oooXXXXooXXOOXo.XoXoX.OXooXXOOXOXOOOO.     ",
"    .oooXXXXXoXXOOXo.oXoXo.OXXoXXOOOXOXOOO.     ",
"    .oooXXXXooXXOOXo.XoXoX.OXooXXOOXOXOOOO.     ",
"    .oooXXXXXoXXOOXo.oXoXo.OXXoXXOOOXOXOOO.     ",
"    .oooXXXXoo..OOXo.......OXoo..OOXOXOOOO.     ",
"    .oooX.............O.O.............XOOO.     ",
"    ..oo.O.O.......O.O.O.O.O.......O.O.OO..     ",
"      ..O.O...++..O.O.O.O.O.O..++...O.O..       ",
"        ...............................         ",
"                                                ",
"                                                ",
"                                                ",
"                                                ",
"                                                ",
"                                                "};
