/* XPM */
static char * gravel_xpm[] = {
"48 48 4 1",
" 	c black",
".	c white",
"X	c #C0C0C0",
"o	c #808080",
"                       .                     X  ",
"          o                  X       o          ",
"      o            o            .               ",
"  . o       .                              .    ",
"                o                               ",
"      o                   o                     ",
"        X           X          o      X         ",
"   o                                            ",
"              X          .        .     .     o ",
"     .     o     X             o                ",
"                    o                           ",
"        o                  o        X       X   ",
" o            X                         o       ",
"                      X                         ",
"                                                ",
"         o                 .    X               ",
"      .          .  X   X o        o .        . ",
"  X         o                             X     ",
"                             X                  ",
"                X                          o    ",
"    o                          X                ",
"o       o              o             X          ",
"                      .     X     o           o ",
"            .    o                              ",
" o   .            X             X               ",
"         .                               .     o",
"   o         .                     o            ",
"                     X   o    X              X  ",
"                                       o    X   ",
"             o                                  ",
"  o    .         .                 .            ",
"             X    o         X   X               ",
"                     o                          ",
"   .                     X               .      ",
"            o                        o          ",
"                                 X              ",
"         X                                     .",
"   o         X         o    .            o      ",
"                X   .          o             .  ",
"X                                    .          ",
"     . o                          o             ",
"             X           X                      ",
"                                         .      ",
"  .      X            .        X              o ",
"                X                               ",
"           .o                      X       o    ",
"    o                       .  X       .        ",
"         .         o         o                  "};
