/* XPM */
static char * hintbutton_xpm[] = {
"48 48 6 1",
" 	c white",
".	c #C0C0C0",
"X	c #808080",
"o	c yellow",
"O	c black",
"+	c #808000",
"                                               .",
" ..............................................X",
" ..............................................X",
" ..............................................X",
" ..............................................X",
" ..............................................X",
" ..............................................X",
" ..............................................X",
" ..............................................X",
" ..............................................X",
" ..............................................X",
" ..............................................X",
" ..............................................X",
" ..............................................X",
" ..................         ...................X",
" ................  .........XX.................X",
" ............... ...       ...X................X",
" .............. ..  ooooooo  ..X...............X",
" .............. . oooOOOOOooo+.X...............X",
" ............. .. ooOOOOOOOoo+..O..............X",
" ............. . ooOOOOoOOOOoo+.O..............X",
" ............. . ooOOOoooOOOoo+.O..............X",
" ............. . oooooooOOOOoo+.O..............X",
" ............. . ooooooOOOOooo+.O..............X",
" ............. . oooooOOOOoooo+.O..............X",
" ............. . oooooOOOooooo+.O..............X",
" ............. . oooooOOOooooo+.O..............X",
" ............. . ooooooooooooo+.O..............X",
" ............. .. ooooOOOoooo+..O..............X",
" ..............X. ooooOOOoooo+.O...............X",
" ..............X..++ooooooo++..O...............X",
" ...............X...+++++++...O................X",
" ................XX.........OO.................X",
" ..................OOOOOOOOO...................X",
" ..............................................X",
" ..............................................X",
" ..............................................X",
" ..............................................X",
" ..............................................X",
" ..............................................X",
" ..............................................X",
" ..............................................X",
" ..............................................X",
" ..............................................X",
" ..............................................X",
" ..............................................X",
" ..............................................X",
".XXXXXXXXXXXXXXXXXXXXXXXXXXXXXXXXXXXXXXXXXXXXXXX"};
