/* XPM */
static char * icchip_xpm[] = {
"48 48 7 1",
" 	c None",
".	c #FFFFFF",
"+	c #C0C0C0",
"@	c #808080",
"#	c #000000",
"$	c #808080",
"%	c #FFFF00",
"...............................................+",
".++++++++++++++++++++++++++++++++++++++++++++++@",
".++++++++++++++++++++++++++++++++++++++++++++++@",
".++++++++++++++++++++++++++++++++++++++++++++++@",
".++++++++++++++++###############+++++++++++++++@",
".+++++++++++++++##$$$$$$$$$$$$$##++++++++++++++@",
".+++++++++++++++#$###############++++++++++++++@",
".+++++++++++++..#$###############..++++++++++++@",
".++++++++++++%..#$###############..%+++++++++++@",
".+++++++++++++..#$###############..++++++++++++@",
".+++++++++++++++#$###############++++++++++++++@",
".+++++++++++++++#$###############++++++++++++++@",
".+++++++++++++..#$###############..++++++++++++@",
".++++++++++++%..#$###############..%+++++++++++@",
".+++++++++++++..#$###############..++++++++++++@",
".+++++++++++++++#$###############++++++++++++++@",
".+++++++++++++++#$###############++++++++++++++@",
".+++++++++++++..#$###############..++++++++++++@",
".++++++++++++%..#$###############..%+++++++++++@",
".+++++++++++++..#$###############..++++++++++++@",
".+++++++++++++++#$###############++++++++++++++@",
".+++++++++++++++#$###############++++++++++++++@",
".+++++++++++++..#$###############..++++++++++++@",
".++++++++++++%..#$########$$#####..%+++++++++++@",
".+++++++++++++..#$###############..++++++++++++@",
".+++++++++++++++#$#####+#$$$#####++++++++++++++@",
".+++++++++++++++#$#######$#######++++++++++++++@",
".+++++++++++++..#$###$$$###$#####..++++++++++++@",
".++++++++++++%..#$#######$$$#####..%+++++++++++@",
".+++++++++++++..#$###$$$#########..++++++++++++@",
".+++++++++++++++#$#######$$$#####++++++++++++++@",
".+++++++++++++++#$###$$##########++++++++++++++@",
".+++++++++++++..#$###$$$#$$$#####..++++++++++++@",
".++++++++++++%..#$###############..%+++++++++++@",
".+++++++++++++..#$###############..++++++++++++@",
".+++++++++++++++#$###############++++++++++++++@",
".+++++++++++++++#$###############++++++++++++++@",
".+++++++++++++..#$###############..++++++++++++@",
".++++++++++++%..#################..%+++++++++++@",
".+++++++++++++..#################..++++++++++++@",
".+++++++++++++++#################++++++++++++++@",
".+++++++++++++++#################++++++++++++++@",
".++++++++++++++++###############+++++++++++++++@",
".++++++++++++++++++++++++++++++++++++++++++++++@",
".++++++++++++++++++++++++++++++++++++++++++++++@",
".++++++++++++++++++++++++++++++++++++++++++++++@",
".++++++++++++++++++++++++++++++++++++++++++++++@",
"+@@@@@@@@@@@@@@@@@@@@@@@@@@@@@@@@@@@@@@@@@@@@@@@"};
