/* XPM */
static char * ice_xpm[] = {
"48 48 2 1",
" 	c cyan",
".	c white",
"                                          .   . ",
"                                             .  ",
"                                            .   ",
"                        .                  .    ",
"                       .                        ",
"                      .                         ",
"                     .   .                      ",
"                    .   .                       ",
"                   .   .                        ",
"                  .   .                         ",
"                 .   .                          ",
"                .   .                           ",
"               .   .                            ",
"              .   .                        .    ",
"             .   .                        .     ",
"            .   .                        .      ",
"           .   .                        .   .   ",
"          .   .                        .   .    ",
"         .   .                        .   .     ",
"        .   .                        .   .      ",
"       .   .                        .   .       ",
"      .   .                        .   .        ",
"     .   .                        .   .         ",
"    .   .                        .   .          ",
"   .   .                        .   .           ",
"      .                        .   .            ",
"     .                        .   .             ",
"    .                        .   .              ",
"                            .   .               ",
"                           .   .                ",
"                          .   .                 ",
"                         .   .                  ",
"                        .   .                   ",
"                       .   .                    ",
"        .                 .                     ",
"       .                 .                      ",
"      .                 .                       ",
"     .   .                                      ",
"    .   .                                       ",
"   .   .                                        ",
"  .   .                                         ",
" .   .                                          ",
".   .                                           ",
"   .                                           .",
"  .                                           . ",
" .                                           .  ",
".                                           .   ",
"                                           .   ."};
