/* XPM */
static char * icewallsw_xpm[] = {
"48 48 4 1",
" 	c cyan",
".	c white",
"X	c #C0C0C0",
"o	c #808080",
" ..............................................X",
"  XXXXXXXXXXXXXXXXXXXXXXXXXXXXXXXXXXXXXXXXXXXXXo",
"   oooooooooooooooooooooooooooooooooooXXXXXXXXXo",
"                        .             ooXXXXXXXo",
"                       .                ooXXXXXo",
"                      .                   XXXXXo",
"                     .   .                 .XXXo",
"                    .   .                  .XXXo",
"                   .   .                    .XXo",
"                  .   .                     .XXo",
"                 .   .                       .Xo",
"                .   .                        .Xo",
"               .   .                         .Xo",
"              .   .                        . .Xo",
"             .   .                        .  .Xo",
"            .   .                        .   .Xo",
"           .   .                        .   ..Xo",
"          .   .                        .   . .Xo",
"         .   .                        .   .  .Xo",
"        .   .                        .   .   .Xo",
"       .   .                        .   .    .Xo",
"      .   .                        .   .     .Xo",
"     .   .                        .   .      .Xo",
"    .   .                        .   .       .Xo",
"   .   .                        .   .        .Xo",
"      .                        .   .         .Xo",
"     .                        .   .          .Xo",
"    .                        .   .           .Xo",
"                            .   .            .Xo",
"                           .   .             .Xo",
"                          .   .              .Xo",
"                         .   .               .Xo",
"                        .   .                .Xo",
"                       .   .                 .Xo",
"        .                 .                  .Xo",
"       .                 .                   .Xo",
"      .                 .                    .Xo",
"     .   .                                   .Xo",
"    .   .                                    .Xo",
"   .   .                                     .Xo",
"  .   .                                      .Xo",
" .   .                                       .Xo",
".   .                                        .Xo",
"   .                                         .Xo",
"  .                                          .Xo",
" .                                           .Xo",
".                                           .  o",
"                                           .   ."};
