/* XPM */
static char * icewallse_xpm[] = {
"48 48 4 1",
" 	c white",
".	c cyan",
"X	c #C0C0C0",
"o	c #808080",
"                                               .",
" XXXXXXXXXXXXXXXXXXXXXXXXXXXXXXXXXXXXXXXXXXXXX..",
" XXXXXXXXXooooooooooooooooooooooooooooooooooo...",
" XXXXXXXoo.............. .................. ....",
" XXXXXoo............... ........................",
" XXXXo................ .........................",
" XXXo................ ... ......................",
" XXXo............... ... .......................",
" XXo............... ... ........................",
" XXo.............. ... .........................",
" Xo.............. ... ..........................",
" Xo............. ... ...........................",
" Xo............ ... ............................",
" Xo........... ... ........................ ....",
" Xo.......... ... ........................ .....",
" Xo......... ... ........................ ......",
" Xo........ ... ........................ ... ...",
" Xo....... ... ........................ ... ....",
" Xo...... ... ........................ ... .....",
" Xo..... ... ........................ ... ......",
" Xo.... ... ........................ ... .......",
" Xo... ... ........................ ... ........",
" Xo.. ... ........................ ... .........",
" Xo. ... ........................ ... ..........",
" Xo ... ........................ ... ...........",
" Xo... ........................ ... ............",
" Xo.. ........................ ... .............",
" Xo. ........................ ... ..............",
" Xo......................... ... ...............",
" Xo........................ ... ................",
" Xo....................... ... .................",
" Xo...................... ... ..................",
" Xo..................... ... ...................",
" Xo.................... ... ....................",
" Xo..... ................. .....................",
" Xo.... ................. ......................",
" Xo... ................. .......................",
" Xo.. ... ......................................",
" Xo. ... .......................................",
" Xo ... ........................................",
" Xo... .........................................",
" Xo.. ..........................................",
" Xo. ...........................................",
" Xo ........................................... ",
" Xo........................................... .",
" X........................................... ..",
" ........................................... ...",
"........................................... ... "};
