/* XPM */
static char * icewallne_xpm[] = {
"48 48 4 1",
" 	c cyan",
".	c white",
"X	c #C0C0C0",
"o	c #808080",
"                                          .   . ",
".                                            .  ",
".X                                          .   ",
".Xo                     .                  .    ",
".Xo                    .                        ",
".Xo                   .                         ",
".Xo                  .   .                      ",
".Xo                 .   .                       ",
".Xo                .   .                        ",
".Xo               .   .                         ",
".Xo              .   .                          ",
".Xo             .   .                           ",
".Xo            .   .                            ",
".Xo           .   .                        .    ",
".Xo          .   .                        .     ",
".Xo         .   .                        .      ",
".Xo        .   .                        .   .   ",
".Xo       .   .                        .   .    ",
".Xo      .   .                        .   .     ",
".Xo     .   .                        .   .      ",
".Xo    .   .                        .   .       ",
".Xo   .   .                        .   .        ",
".Xo  .   .                        .   .         ",
".Xo .   .                        .   .          ",
".Xo.   .                        .   .           ",
".Xo   .                        .   .            ",
".Xo  .                        .   .             ",
".Xo .                        .   .              ",
".Xo                         .   .               ",
".Xo                        .   .                ",
".Xo                       .   .                 ",
".Xo                      .   .                  ",
".Xo                     .   .                   ",
".Xo                    .   .                    ",
".Xo     .                 .                     ",
".Xo    .                 .                      ",
".Xo   .                 .                       ",
".Xo  .   .                                      ",
".XXo.   .                                       ",
".XXo   .                                        ",
".XXXo .                                         ",
".XXXo.                                          ",
".XXXXX                                          ",
".XXXXX..                                       .",
".XXXXXXX..                                    . ",
".XXXXXXXXX....................................  ",
".XXXXXXXXXXXXXXXXXXXXXXXXXXXXXXXXXXXXXXXXXXXXX  ",
"Xoooooooooooooooooooooooooooooooooooooooooooooo."};
