/* XPM */
static char * icewallnw_xpm[] = {
"48 48 4 1",
" 	c cyan",
".	c white",
"X	c #808080",
"o	c #C0C0C0",
"                                          .   . ",
"                                             . X",
"                                            . oX",
"                        .                  . .oX",
"                       .                     .oX",
"                      .                      .oX",
"                     .   .                   .oX",
"                    .   .                    .oX",
"                   .   .                     .oX",
"                  .   .                      .oX",
"                 .   .                       .oX",
"                .   .                        .oX",
"               .   .                         .oX",
"              .   .                        . .oX",
"             .   .                        .  .oX",
"            .   .                        .   .oX",
"           .   .                        .   ..oX",
"          .   .                        .   . .oX",
"         .   .                        .   .  .oX",
"        .   .                        .   .   .oX",
"       .   .                        .   .    .oX",
"      .   .                        .   .     .oX",
"     .   .                        .   .      .oX",
"    .   .                        .   .       .oX",
"   .   .                        .   .        .oX",
"      .                        .   .         .oX",
"     .                        .   .          .oX",
"    .                        .   .           .oX",
"                            .   .            .oX",
"                           .   .             .oX",
"                          .   .              .oX",
"                         .   .               .oX",
"                        .   .                .oX",
"                       .   .                 .oX",
"        .                 .                  .oX",
"       .                 .                   .oX",
"      .                 .                    .oX",
"     .   .                                   .oX",
"    .   .                                   .ooX",
"   .   .                                    .ooX",
"  .   .                                    .oooX",
" .   .                                     .oooX",
".   .                                     .ooooX",
"   .                                    ..oooooX",
"  .                                   ..oooooooX",
" . ...................................oooooooooX",
". oooooooooooooooooooooooooooooooooooooooooooooX",
" XXXXXXXXXXXXXXXXXXXXXXXXXXXXXXXXXXXXXXXXXXXXXXo"};
