/* XPM */
static char * keyblue_xpm[] = {
"48 48 5 1",
" 	c white",
".	c #C0C0C0",
"X	c #808080",
"o	c black",
"O	c blue",
"                                               .",
" ..............................................X",
" ..............................................X",
" ..............................................X",
" ..............................................X",
" ..............................................X",
" ..............................................X",
" ..............................................X",
" ..............................................X",
" ..............................................X",
" ..............................................X",
" ..............................................X",
" ..............................................X",
" ..............................................X",
" .....ooooo....................................X",
" ....oOOOOOo...................................X",
" ...oOOOOOOOo..................................X",
" ..oOOOoooOOOo.................................X",
" ..oOOoXXXoOOo.................................X",
" ..oOOoX...oOOooooooooooooooooooooooooooooooo..X",
" ..oOOoX...oOOOOOOOOOOOOOOOOOOOOOOOOOOOOOOOOo..X",
" ..oOOoX...oOOOOOOOOOOOOOOOOOOOOOOOOOOOOOOOOoX.X",
" ..oOOoX...oOOOOOOOOOOOOOOOOOOOOOOOOOOOOOOOOoX.X",
" ..oOOoX...oOOoooooooooooooooooooooooooooooooX.X",
" ..oOOoX..oOOoXXXXXXXXXXXXXXooooooooooooooXXXX.X",
" ..oOOOoooOOOo..............oOOOoX...oOOOoX....X",
" ...oOOOOOOOoX..............oOOOoX...oOOOoX....X",
" ....oOOOOOoX...............oOOOoX...oOOOoX....X",
" .....oooooX................oOOOoX...oOOOoX....X",
" ......XXXX.................oOOOoX...oOOOoX....X",
" ...........................oooooX...oOOOoX....X",
" ............................XXXXX...oooooX....X",
" .....................................XXXXX....X",
" ..............................................X",
" ..............................................X",
" ..............................................X",
" ..............................................X",
" ..............................................X",
" ..............................................X",
" ..............................................X",
" ..............................................X",
" ..............................................X",
" ..............................................X",
" ..............................................X",
" ..............................................X",
" ..............................................X",
" ..............................................X",
".XXXXXXXXXXXXXXXXXXXXXXXXXXXXXXXXXXXXXXXXXXXXXXX"};
