/* XPM */
static char * paramecium_s_xpm[] = {
"48 48 6 1",
" 	c None",
".	c #808080",
"X	c black",
"o	c white",
"O	c #C0C0C0",
"+	c #FFFF97",
"                                                ",
"                       .   .                    ",
"                     .  .  . .                  ",
"                   . .  . .  .  .               ",
"                .  .  . XXX .  .  .             ",
"                 .  .XXX   XXX.  .              ",
"               .  .XX   XXX   XX.  .            ",
"                ..X  XXX o XXX  X..             ",
"                 X XX o o o o XX X  .           ",
"              ...X X o o o o o X X..            ",
"                X X o o o o o o X X  .          ",
"             .  X Xo o o o o o oX X..           ",
"              ..X X o o o o o o X X   .         ",
"            .  X X o o oXXXo o o X X..          ",
"             ..X Xo o oXOOOXo o oX X            ",
"               X X o oXO.X.OXo o X X.           ",
"            ...X Xo o XOX+XOX o oX X ..         ",
"               X X o oXO.X.OXo o X X            ",
"              .X Xo o oXOOOXo o oX X...         ",
"            .. X X o o oXXXo o o X X            ",
"                X X o o o o o o oX X  .         ",
"             ...X Xo o o o o o o X X..          ",
"                X X o o o o o o oX X            ",
"             .  X Xo o o o o o oX X  .          ",
"              ..X X o o o o o o X X..           ",
"                X Xo o o o o o  X X             ",
"              .  X Xo o o o o oX X...           ",
"               ..X X o o o o o X X              ",
"                 X Xo o o o o oX X. .           ",
"               .  X Xo o o o o X X .            ",
"                ..X X o o o o oX X  .           ",
"                  X Xo o o o o X X..            ",
"               .  X X o o o o X X               ",
"                ..X Xo o o o oX X  .            ",
"                  X X o o o o X X..             ",
"               . .X Xo o o o oX X               ",
"                . X X o o o o X X. .            ",
"               .  X Xo o o o oX X .             ",
"                ..X X o o o o X X.              ",
"                   X X o o o X X  ..            ",
"                .  X Xo o o oX X.               ",
"                 ..X XXX o XXX X ..             ",
"                    X   XXX   X.                ",
"                  ...XXX   XXX  ..              ",
"                     . .XXX. .                  ",
"                   ..  . . .  ..                ",
"                      .  .  .                   ",
"                                                "};
