/* XPM */
static char * paramecium_e_xpm[] = {
"48 48 6 1",
" 	c None",
".	c #808080",
"X	c black",
"o	c white",
"O	c #C0C0C0",
"+	c #FFFF97",
"                                                ",
"                                                ",
"                                                ",
"                                                ",
"                                                ",
"                                                ",
"                                                ",
"                                                ",
"                                                ",
"            .   . . .                           ",
"          .  .  . .  . .                        ",
"        .  . . .  .  .  . . . .                 ",
"      .  . . XXXXXXXXXX . .  . . .  .  .        ",
"    .  . .XXX          XXX. .  .  .  . . .      ",
"     . .XX   XXXXXXXXXX   XXXXXX  . . .  . .    ",
"   .  .X  XXX o o o o oXXX      XXXXXXX .  .    ",
"    . X XX o o o o o o o  XXXXXX       XXX.  .  ",
"     .X X o o o o o o o o o o o XXXXXXX   X  .  ",
"  .. X X o o o o o o o o o o o o o o o XXX X.   ",
"    .X Xo o o oXXXo o o o o o o o o o o oX X  . ",
" ..  X X o o oXOOOXo o o o o o o o o o o X X..  ",
"   .X X o o oXO.X.OXo o o o o o o o o o o X X   ",
"    X Xo o o XOX+XOX o o o o o o o o o o oX X.. ",
"  ..X X o o oXO.X.OXo o o o o o o o o o o X X   ",
" .   X X o o oXOOOXo o o o o o o o o o o X X..  ",
"    .X Xo o o oXXXo o o o o o o o o o o oX X  . ",
"  .. X X o o o o o o o o o o o o o o o XXX X.   ",
"     .X X o o o o o o o o o oXXXXXXXXXX   X. .  ",
"   .. X XX o o o o o o o oXXX          XXX . .  ",
"      .X  XXX o o o XXXXXX   XXXXXXXXXX  . .    ",
"     . .XX   XXXXXXX      XXX .  . .  .  .      ",
"    .  . .XXX       XXXXXX .  .  .  . . .       ",
"      .  .  .XXXXXXX .  .  . .  .  . .          ",
"         .  . . . .  .  . .                     ",
"           .  . .  . . .                        ",
"             .  .  .                            ",
"                                                ",
"                                                ",
"                                                ",
"                                                ",
"                                                ",
"                                                ",
"                                                ",
"                                                ",
"                                                ",
"                                                ",
"                                                ",
"                                                "};
