/* XPM */
static char * paramecium_w_xpm[] = {
"48 48 6 1",
" 	c None",
".	c #808080",
"X	c black",
"o	c white",
"O	c #C0C0C0",
"+	c #FFFF97",
"                                                ",
"                                                ",
"                                                ",
"                                                ",
"                                                ",
"                                                ",
"                                                ",
"                                                ",
"                                                ",
"                                                ",
"                                                ",
"                                                ",
"                            .  .  .             ",
"                        . . .  . .  .           ",
"                     . .  .  . . . .  .         ",
"          . .  .  . .  .  . XXXXXXX.  .  .      ",
"       . . .  .  .  . XXXXXX       XXX. .  .    ",
"      .  .  . .  . XXX      XXXXXXX   XX. .     ",
"    . .  XXXXXXXXXX   XXXXXX o o o XXX  X.      ",
"  . . XXX          XXXo o o o o o o o XX X ..   ",
"  . .X   XXXXXXXXXXo o o o o o o o o o X X.     ",
"   .X XXX o o o o o o o o o o o o o o o X X ..  ",
" .  X Xo o o o o o o o o o o oXXXo o o oX X.    ",
"  ..X X o o o o o o o o o o oXOOOXo o o X X   . ",
"   X X o o o o o o o o o o oXO.X.OXo o o X X..  ",
" ..X Xo o o o o o o o o o o XOX+XOX o o oX X    ",
"   X X o o o o o o o o o o oXO.X.OXo o o X X.   ",
"  ..X X o o o o o o o o o o oXOOOXo o o X X  .. ",
" .  X Xo o o o o o o o o o o oXXXo o o oX X.    ",
"   .X XXX o o o o o o o o o o o o o o o X X ..  ",
"  .  X   XXXXXXX o o o o o o o o o o o X X.     ",
"  .  .XXX       XXXXXX  o o o o o o o XX X .    ",
"    .  . XXXXXXX      XXXo o o o o XXX  X.  .   ",
"    . .  . . .  XXXXXX   XXXXXXXXXX   XX. .     ",
"      . . .  .  .  . .XXX          XXX. .  .    ",
"        .  .  . . .  . . XXXXXXXXXX . .  .      ",
"                 . . . .  .  .  . . .  .        ",
"                        . .  . .  .  .          ",
"                           . . .   .            ",
"                                                ",
"                                                ",
"                                                ",
"                                                ",
"                                                ",
"                                                ",
"                                                ",
"                                                ",
"                                                "};
