/* XPM */
static char * popupwall_xpm[] = {
"48 48 4 1",
" 	c white",
".	c #C0C0C0",
"X	c #808080",
"o	c black",
"                                               .",
" ..............................................X",
" ..............................................X",
" ..............................................X",
" ..............................................X",
" .........     ..................     .........X",
" .......  XXXXX  ..............  XXXXX  .......X",
" ...... XXXXXXXXXX............ XXXXXXXXXX......X",
" ..... XXXXXXXXXXXo.......... XXXXXXXXXXXo.....X",
" ..... XXXXXXXXXXXo.......... XXXXXXXXXXXo.....X",
" .... XXXXXXXXXXXXXo........ XXXXXXXXXXXXXo....X",
" .... XXXXXXXXXXXXXo........ XXXXXXXXXXXXXo....X",
" .... XXXXXXXXXXXXXo........ XXXXXXXXXXXXXo....X",
" .... XXXXXXXXXXXXXo........ XXXXXXXXXXXXXo....X",
" .... XXXXXXXXXXXXXo........ XXXXXXXXXXXXXo....X",
" ..... XXXXXXXXXXXo.......... XXXXXXXXXXXo.....X",
" ..... XXXXXXXXXXXo.......... XXXXXXXXXXXo.....X",
" ......XXXXXXXXXXo............XXXXXXXXXXo......X",
" .......ooXXXXXoo..............ooXXXXXoo.......X",
" .........ooooo..................ooooo.........X",
" ..............................................X",
" ..............................................X",
" ..............................................X",
" ..............................................X",
" ..............................................X",
" ..............................................X",
" ..............................................X",
" ..............................................X",
" .........     ..................     .........X",
" .......  XXXXX  ..............  XXXXX  .......X",
" ...... XXXXXXXXXX............ XXXXXXXXXX......X",
" ..... XXXXXXXXXXXo.......... XXXXXXXXXXXo.....X",
" ..... XXXXXXXXXXXo.......... XXXXXXXXXXXo.....X",
" .... XXXXXXXXXXXXXo........ XXXXXXXXXXXXXo....X",
" .... XXXXXXXXXXXXXo........ XXXXXXXXXXXXXo....X",
" .... XXXXXXXXXXXXXo........ XXXXXXXXXXXXXo....X",
" .... XXXXXXXXXXXXXo........ XXXXXXXXXXXXXo....X",
" .... XXXXXXXXXXXXXo........ XXXXXXXXXXXXXo....X",
" ..... XXXXXXXXXXXo.......... XXXXXXXXXXXo.....X",
" ..... XXXXXXXXXXXo.......... XXXXXXXXXXXo.....X",
" ......XXXXXXXXXXo............XXXXXXXXXXo......X",
" .......ooXXXXXoo..............ooXXXXXoo.......X",
" .........ooooo..................ooooo.........X",
" ..............................................X",
" ..............................................X",
" ..............................................X",
" ..............................................X",
".XXXXXXXXXXXXXXXXXXXXXXXXXXXXXXXXXXXXXXXXXXXXXXX"};
