/* XPM */
static char * popupwall_xpm[] = {
"48 48 8 1",
" 	c None",
".	c #FFFFFF",
"+	c #C0C0C0",
"@	c #808080",
"#	c #000000",
"$	c #808080",
"%	c #FFFFFF",
"&	c #808000",
"...............................................+",
".++++++++++++++++++++++++++++++++++++++++++++++@",
".++++++++++++++++++++++++++++++++++++++++++++++@",
".++++++++++++++++++++++++++++++++++++++++++++++@",
".++++++++++++++++++++++++++++++++++++++++++++++@",
".++++++++++++++++++++++++++++++++++++++++++++++@",
".++++++++++++++++++++++++++++++++++++++++++++++@",
".++++++++++++++++++++++++++++++++++++++++++++++@",
".++++++++++++++++++++++++++++++++++++++++++++++@",
".++++++++++++++++++++++++++++++++++++++++++++++@",
".++++++++++++++++++++++++++++++++++++++++++++++@",
".+++++++++++++++++++########+++++++++++++++++++@",
".++++++++++++++++####$$$$$$##++++++++++++++++++@",
".+++++++++++++++##$$$$$$$$$$$##++++++++++++++++@",
".++++++++++++++##$$$$$$$$$$$$$$#+++++++++++++++@",
".+++++++++++++##$$$$$$$$$$$$$$$$%++++++++++++++@",
".++++++++++++##$$$$$$$$$$$$$$$$$$%+++++++++++++@",
".++++++++++++#$$$$$$$$$$$$$$$$$$$$%++++++++++++@",
".+++++++++++##$$$$$$$$$$$$$$$$$$$$&%+++++++++++@",
".+++++++++++#$$$$$$$$$$$$$$$$$$$$$$%+++++++++++@",
".++++++++++##$$$$$$$$$$$$$$$$$$$$$$%%++++++++++@",
".++++++++++#$$$$$$$$$$$$$$$$$$$$$$$$%++++++++++@",
".++++++++++#$$$$$$$$$$$$$$$$$$$$$$$$%++++++++++@",
".++++++++++#$$$$$$$$$$$$$$$$$$$$$$$$%++++++++++@",
".++++++++++#$$$$$$$$$$$$$$$$$$$$$$$$%++++++++++@",
".++++++++++#$$$$$$$$$$$$$$$$$$$$$$$$%++++++++++@",
".++++++++++#$$$$$$$$$$$$$$$$$$$$$$$$%++++++++++@",
".++++++++++#$$$$$$$$$$$$$$$$$$$$$$$$%++++++++++@",
".++++++++++##$$$$$$$$$$$$$$$$$$$$$$%%++++++++++@",
".+++++++++++#$$$$$$$$$$$$$$$$$$$$$$%+++++++++++@",
".+++++++++++##$$$$$$$$$$$$$$$$$$$$&%+++++++++++@",
".++++++++++++#$$$$$$$$$$$$$$$$$$$$%%+++++++++++@",
".+++++++++++++#$$$$$$$$$$$$$$$$$$%%++++++++++++@",
".++++++++++++++%$$$$$$$$$$$$$$$$%%+++++++++++++@",
".+++++++++++++++%$$$$$$$$$$$$$$%%++++++++++++++@",
".++++++++++++++++%$$$$$$$$$$$$%%+++++++++++++++@",
".+++++++++++++++++%%%$$$$$$$%%%++++++++++++++++@",
".+++++++++++++++++++%%%%%%%%+++++++++++++++++++@",
".++++++++++++++++++++++++++++++++++++++++++++++@",
".++++++++++++++++++++++++++++++++++++++++++++++@",
".++++++++++++++++++++++++++++++++++++++++++++++@",
".++++++++++++++++++++++++++++++++++++++++++++++@",
".++++++++++++++++++++++++++++++++++++++++++++++@",
".++++++++++++++++++++++++++++++++++++++++++++++@",
".++++++++++++++++++++++++++++++++++++++++++++++@",
".++++++++++++++++++++++++++++++++++++++++++++++@",
".++++++++++++++++++++++++++++++++++++++++++++++@",
"+@@@@@@@@@@@@@@@@@@@@@@@@@@@@@@@@@@@@@@@@@@@@@@@"};
