/* XPM */
static char * slidewest_xpm[] = {
"48 48 6 1",
" 	c navy",
".	c black",
"X	c white",
"o	c cyan",
"O	c #007F7F",
"+	c blue",
"  ....XXXXooooOOOO++++    ....XXXXooooOOOO++++  ",
"  ....XXXXooooOOOO++++    ....XXXXooooOOOO++++  ",
" ....XXXXooooOOOO++++    ....XXXXooooOOOO++++   ",
" ....XXXXooooOOOO++++    ....XXXXooooOOOO++++   ",
" ....XXXXooooOOOO++++    ....XXXXooooOOOO++++   ",
" ....XXXXooooOOOO++++    ....XXXXooooOOOO++++   ",
"....XXXXooooOOOO++++    ....XXXXooooOOOO++++    ",
"....XXXXooooOOOO++++    ....XXXXooooOOOO++++    ",
"....XXXXooooOOOO++++    ....XXXXooooOOOO++++    ",
"....XXXXooooOOOO++++    ....XXXXooooOOOO++++    ",
"...XXXXooooOOOO++++    ....XXXXooooOOOO++++    .",
"...XXXXooooOOOO++++    ....XXXXooooOOOO++++    .",
"...XXXXooooOOOO++++    ....XXXXooooOOOO++++    .",
"...XXXXooooOOOO++++    ....XXXXooooOOOO++++    .",
"..XXXXooooOOOO++++    ....XXXXooooOOOO++++    ..",
"..XXXXooooOOOO++++    ....XXXXooooOOOO++++    ..",
"..XXXXooooOOOO++++    ....XXXXooooOOOO++++    ..",
"..XXXXooooOOOO++++    ....XXXXooooOOOO++++    ..",
".XXXXooooOOOO++++    ....XXXXooooOOOO++++    ...",
".XXXXooooOOOO++++    ....XXXXooooOOOO++++    ...",
".XXXXooooOOOO++++    ....XXXXooooOOOO++++    ...",
".XXXXooooOOOO++++    ....XXXXooooOOOO++++    ...",
"XXXXooooOOOO++++    ....XXXXooooOOOO++++    ....",
"XXXXooooOOOO++++    ....XXXXooooOOOO++++    ....",
"XXXXooooOOOO++++    ....XXXXooooOOOO++++    ....",
"XXXXooooOOOO++++    ....XXXXooooOOOO++++    ....",
".XXXXooooOOOO++++    ....XXXXooooOOOO++++    ...",
".XXXXooooOOOO++++    ....XXXXooooOOOO++++    ...",
".XXXXooooOOOO++++    ....XXXXooooOOOO++++    ...",
".XXXXooooOOOO++++    ....XXXXooooOOOO++++    ...",
"..XXXXooooOOOO++++    ....XXXXooooOOOO++++    ..",
"..XXXXooooOOOO++++    ....XXXXooooOOOO++++    ..",
"..XXXXooooOOOO++++    ....XXXXooooOOOO++++    ..",
"..XXXXooooOOOO++++    ....XXXXooooOOOO++++    ..",
"...XXXXooooOOOO++++    ....XXXXooooOOOO++++    .",
"...XXXXooooOOOO++++    ....XXXXooooOOOO++++    .",
"...XXXXooooOOOO++++    ....XXXXooooOOOO++++    .",
"...XXXXooooOOOO++++    ....XXXXooooOOOO++++    .",
"....XXXXooooOOOO++++    ....XXXXooooOOOO++++    ",
"....XXXXooooOOOO++++    ....XXXXooooOOOO++++    ",
"....XXXXooooOOOO++++    ....XXXXooooOOOO++++    ",
"....XXXXooooOOOO++++    ....XXXXooooOOOO++++    ",
" ....XXXXooooOOOO++++    ....XXXXooooOOOO++++   ",
" ....XXXXooooOOOO++++    ....XXXXooooOOOO++++   ",
" ....XXXXooooOOOO++++    ....XXXXooooOOOO++++   ",
" ....XXXXooooOOOO++++    ....XXXXooooOOOO++++   ",
"  ....XXXXooooOOOO++++    ....XXXXooooOOOO++++  ",
"  ....XXXXooooOOOO++++    ....XXXXooooOOOO++++  "};
