/* XPM */
static char * slidenorth_xpm[] = {
"48 48 6 1",
" 	c navy",
".	c black",
"X	c white",
"o	c cyan",
"O	c #007F7F",
"+	c blue",
"      ................XXXX................      ",
"  ................XXXXXXXXXXXX................  ",
"..............XXXXXXXXXXXXXXXXXXXX..............",
"..........XXXXXXXXXXXXXXXXXXXXXXXXXXXX..........",
"......XXXXXXXXXXXXXXXXooooXXXXXXXXXXXXXXXX......",
"..XXXXXXXXXXXXXXXXooooooooooooXXXXXXXXXXXXXXXX..",
"XXXXXXXXXXXXXXooooooooooooooooooooXXXXXXXXXXXXXX",
"XXXXXXXXXXooooooooooooooooooooooooooooXXXXXXXXXX",
"XXXXXXooooooooooooooooOOOOooooooooooooooooXXXXXX",
"XXooooooooooooooooOOOOOOOOOOOOooooooooooooooooXX",
"ooooooooooooooOOOOOOOOOOOOOOOOOOOOoooooooooooooo",
"ooooooooooOOOOOOOOOOOOOOOOOOOOOOOOOOOOoooooooooo",
"ooooooOOOOOOOOOOOOOOOO++++OOOOOOOOOOOOOOOOoooooo",
"ooOOOOOOOOOOOOOOOO++++++++++++OOOOOOOOOOOOOOOOoo",
"OOOOOOOOOOOOOO++++++++++++++++++++OOOOOOOOOOOOOO",
"OOOOOOOOOO++++++++++++++++++++++++++++OOOOOOOOOO",
"OOOOOO++++++++++++++++    ++++++++++++++++OOOOOO",
"OO++++++++++++++++            ++++++++++++++++OO",
"++++++++++++++                    ++++++++++++++",
"++++++++++                            ++++++++++",
"++++++                ....                ++++++",
"++                ............                ++",
"              ....................              ",
"          ............................          ",
"      ................XXXX................      ",
"  ................XXXXXXXXXXXX................  ",
"..............XXXXXXXXXXXXXXXXXXXX..............",
"..........XXXXXXXXXXXXXXXXXXXXXXXXXXXX..........",
"......XXXXXXXXXXXXXXXXooooXXXXXXXXXXXXXXXX......",
"..XXXXXXXXXXXXXXXXooooooooooooXXXXXXXXXXXXXXXX..",
"XXXXXXXXXXXXXXooooooooooooooooooooXXXXXXXXXXXXXX",
"XXXXXXXXXXooooooooooooooooooooooooooooXXXXXXXXXX",
"XXXXXXooooooooooooooooOOOOooooooooooooooooXXXXXX",
"XXooooooooooooooooOOOOOOOOOOOOooooooooooooooooXX",
"ooooooooooooooOOOOOOOOOOOOOOOOOOOOoooooooooooooo",
"ooooooooooOOOOOOOOOOOOOOOOOOOOOOOOOOOOoooooooooo",
"ooooooOOOOOOOOOOOOOOOO++++OOOOOOOOOOOOOOOOoooooo",
"ooOOOOOOOOOOOOOOOO++++++++++++OOOOOOOOOOOOOOOOoo",
"OOOOOOOOOOOOOO++++++++++++++++++++OOOOOOOOOOOOOO",
"OOOOOOOOOO++++++++++++++++++++++++++++OOOOOOOOOO",
"OOOOOO++++++++++++++++    ++++++++++++++++OOOOOO",
"OO++++++++++++++++            ++++++++++++++++OO",
"++++++++++++++                    ++++++++++++++",
"++++++++++                            ++++++++++",
"++++++                ....                ++++++",
"++                ............                ++",
"              ....................              ",
"          ............................          "};
