/* XPM */
static char * sliderandom_xpm[] = {
"48 48 22 1",
" 	c None",
".	c #2A2A7F",
"+	c #000080",
"@	c #000000",
"#	c #FFFFFF",
"$	c #2A2A2A",
"%	c #00FFFF",
"&	c #555555",
"*	c #007F7F",
"=	c #55FFFF",
"-	c #2A7F7F",
";	c #0000FF",
">	c #002A2A",
",	c #000055",
"'	c #001289",
")	c #004AFF",
"!	c #000038",
"~	c #000037",
"{	c #000036",
"]	c #000023",
"^	c #00001C",
"/	c #000046",
".+++++@@@@@@@@@@@@@@@@####@@@@@@@@@@@@@@@@++++++",
"++@@@@@@@@@@@@@@@@############@@@@@@@@@@@@@@@@++",
"+$$@@@@@@@@@@@####################@@@@@@@@@@@@@@",
"+@@$@@@@@@############################@@@@@@@@@@",
"+@@@$@################%%%%################@&@@@@",
"+@@@@@############%%%%%%%%%%%%#############@@@@@",
"@@@@##########%%%%%%%%%%%%%%%%%%%%##########@@@@",
"@@@@######%%%%%%%%%%%%%%%%%%%%%%%%%%%%######@@@@",
"@@@@#####%%%%%%%%%%%%%****%%%%%%%%%%%%%=####@@@@",
"@@@@####%%%%%%%%%%************%%%%%%%%%%####@@@@",
"@@@####%%%%%%%********************%%%%%%%####@@@",
"@@@####%%%%-*************************%%%%####@@@",
"@@@####%%%%***********;;;;***********%%%%####@@@",
"@@@####%%%%*******;;;;;;;;;;;;*******%%%%####@@@",
"@@####%%%%***-;;;;;;;;;;;;;;;;;;;*****%%%%####@>",
"@@####%%%%****;;;;;;;;;;;;;;;;;;;;****%%%%####@>",
"@@####%%%%****;;;;;;;;++++;;;;;;;;****%%%%####@>",
"@@####%%%%****;;;;++++++++++++;;;;****%%%%####@>",
"@####%%%%****;;;;+.++++++++++++;;;;****%%%%####,",
"@####%%%%****;;;;++.+++++++++++;;;;****%%%%####,",
"@####%%%%****;;;;+++++@@@@+++++;;;;****%%%%####,",
"@####%%%%****;;;;+++.$@@@@@++++;;;;****%%%%####,",
"####%%%%****;;;;++++@@$@@@@@++++;;;;****%%%%####",
"####%%%%****;;;;++++@@@@@@@@++++;;;;****%%%%####",
"####%%%%****;;;;++++@@@@@@@@++++;;;;****%%%%####",
"####%%%%****;;;;++++@@@@@@@@++++;;;;****%%%%####",
"@####%%%%****;;;;++++@@@@@@++++;;;;****%%%%####@",
"@####%%%%****;;;;+++++@@@@+++++;;;;****%%%%####@",
"@####%%%%****;;;;++++++++++++++;;;;****%%%%####@",
"@####%%%%****;;;;+'++++++++++++;;;;****%%%%####@",
"@@####%%%%****;;;);++++++++++;;;;;****%%%%####@&",
"@@####%%%%****;;);;;;;;++++;;;;;;;****%%%%####@&",
"@@####%%%%****;);;;;;;;;;;;;;;;;;;****%%%%####@&",
"@@####%%%%*****;;;;;;;;;;;;;;;;;;;****%%%%####@@",
"@@@####%%%%********;;;;;;;;;;;;******%%%%####@@@",
"@@@####%%%%************;;;;**********%%%%####@@@",
"@@@####%%%%%*************************%%%%####@@@",
"@@@####%%%%%%%%********************%%%%%%####@@@",
"@@@@####%%%%%%%%%%%************%%%%%%%%%####@@@@",
"@@@@####%%%%%%%%%%%%%%%****%%%%%%%%%%%%#####@@@+",
"@@@@#######%%%%%%%%%%%%%%%%%%%%%%%%%%%%#####@@@+",
"@@@@###########%%%%%%%%%%%%%%%%%%%%#########@@@+",
"+@@@@##############%%%%%%%%%%%%############@@@@+",
"+@@@,@@################%%%%################!@@@+",
"+@@~@@@@@@@############################@@@@@!@@+",
"+{]@@@@@@@@@@@@####################@@@@@@@@@@^@+",
"+++@@@@@@@@@@@@@@@@############@@@@@@@@@@@@@@@/+",
"+++++++,,@@@@@@@@@@@@@@&&&&@@@@@@@@@@@,,,,,+++++"};
