/* XPM */
static char * slideeast_xpm[] = {
"48 48 6 1",
" 	c navy",
".	c blue",
"X	c #007F7F",
"o	c cyan",
"O	c white",
"+	c black",
"  ....XXXXooooOOOO++++    ....XXXXooooOOOO++++  ",
"  ....XXXXooooOOOO++++    ....XXXXooooOOOO++++  ",
"   ....XXXXooooOOOO++++    ....XXXXooooOOOO++++ ",
"   ....XXXXooooOOOO++++    ....XXXXooooOOOO++++ ",
"   ....XXXXooooOOOO++++    ....XXXXooooOOOO++++ ",
"   ....XXXXooooOOOO++++    ....XXXXooooOOOO++++ ",
"    ....XXXXooooOOOO++++    ....XXXXooooOOOO++++",
"    ....XXXXooooOOOO++++    ....XXXXooooOOOO++++",
"    ....XXXXooooOOOO++++    ....XXXXooooOOOO++++",
"    ....XXXXooooOOOO++++    ....XXXXooooOOOO++++",
"+    ....XXXXooooOOOO++++    ....XXXXooooOOOO+++",
"+    ....XXXXooooOOOO++++    ....XXXXooooOOOO+++",
"+    ....XXXXooooOOOO++++    ....XXXXooooOOOO+++",
"+    ....XXXXooooOOOO++++    ....XXXXooooOOOO+++",
"++    ....XXXXooooOOOO++++    ....XXXXooooOOOO++",
"++    ....XXXXooooOOOO++++    ....XXXXooooOOOO++",
"++    ....XXXXooooOOOO++++    ....XXXXooooOOOO++",
"++    ....XXXXooooOOOO++++    ....XXXXooooOOOO++",
"+++    ....XXXXooooOOOO++++    ....XXXXooooOOOO+",
"+++    ....XXXXooooOOOO++++    ....XXXXooooOOOO+",
"+++    ....XXXXooooOOOO++++    ....XXXXooooOOOO+",
"+++    ....XXXXooooOOOO++++    ....XXXXooooOOOO+",
"++++    ....XXXXooooOOOO++++    ....XXXXooooOOOO",
"++++    ....XXXXooooOOOO++++    ....XXXXooooOOOO",
"++++    ....XXXXooooOOOO++++    ....XXXXooooOOOO",
"++++    ....XXXXooooOOOO++++    ....XXXXooooOOOO",
"+++    ....XXXXooooOOOO++++    ....XXXXooooOOOO+",
"+++    ....XXXXooooOOOO++++    ....XXXXooooOOOO+",
"+++    ....XXXXooooOOOO++++    ....XXXXooooOOOO+",
"+++    ....XXXXooooOOOO++++    ....XXXXooooOOOO+",
"++    ....XXXXooooOOOO++++    ....XXXXooooOOOO++",
"++    ....XXXXooooOOOO++++    ....XXXXooooOOOO++",
"++    ....XXXXooooOOOO++++    ....XXXXooooOOOO++",
"++    ....XXXXooooOOOO++++    ....XXXXooooOOOO++",
"+    ....XXXXooooOOOO++++    ....XXXXooooOOOO+++",
"+    ....XXXXooooOOOO++++    ....XXXXooooOOOO+++",
"+    ....XXXXooooOOOO++++    ....XXXXooooOOOO+++",
"+    ....XXXXooooOOOO++++    ....XXXXooooOOOO+++",
"    ....XXXXooooOOOO++++    ....XXXXooooOOOO++++",
"    ....XXXXooooOOOO++++    ....XXXXooooOOOO++++",
"    ....XXXXooooOOOO++++    ....XXXXooooOOOO++++",
"    ....XXXXooooOOOO++++    ....XXXXooooOOOO++++",
"   ....XXXXooooOOOO++++    ....XXXXooooOOOO++++ ",
"   ....XXXXooooOOOO++++    ....XXXXooooOOOO++++ ",
"   ....XXXXooooOOOO++++    ....XXXXooooOOOO++++ ",
"   ....XXXXooooOOOO++++    ....XXXXooooOOOO++++ ",
"  ....XXXXooooOOOO++++    ....XXXXooooOOOO++++  ",
"  ....XXXXooooOOOO++++    ....XXXXooooOOOO++++  "};
