/* XPM */
static char * slidesouth_xpm[] = {
"48 48 6 1",
" 	c navy",
".	c black",
"X	c blue",
"o	c #007F7F",
"O	c cyan",
"+	c white",
"          ............................          ",
"              ....................              ",
"XX                ............                XX",
"XXXXXX                ....                XXXXXX",
"XXXXXXXXXX                            XXXXXXXXXX",
"XXXXXXXXXXXXXX                    XXXXXXXXXXXXXX",
"ooXXXXXXXXXXXXXXXX            XXXXXXXXXXXXXXXXoo",
"ooooooXXXXXXXXXXXXXXXX    XXXXXXXXXXXXXXXXoooooo",
"ooooooooooXXXXXXXXXXXXXXXXXXXXXXXXXXXXoooooooooo",
"ooooooooooooooXXXXXXXXXXXXXXXXXXXXoooooooooooooo",
"OOooooooooooooooooXXXXXXXXXXXXooooooooooooooooOO",
"OOOOOOooooooooooooooooXXXXooooooooooooooooOOOOOO",
"OOOOOOOOOOooooooooooooooooooooooooooooOOOOOOOOOO",
"OOOOOOOOOOOOOOooooooooooooooooooooOOOOOOOOOOOOOO",
"++OOOOOOOOOOOOOOOOooooooooooooOOOOOOOOOOOOOOOO++",
"++++++OOOOOOOOOOOOOOOOooooOOOOOOOOOOOOOOOO++++++",
"++++++++++OOOOOOOOOOOOOOOOOOOOOOOOOOOO++++++++++",
"++++++++++++++OOOOOOOOOOOOOOOOOOOO++++++++++++++",
"..++++++++++++++++OOOOOOOOOOOO++++++++++++++++..",
"......++++++++++++++++OOOO++++++++++++++++......",
"..........++++++++++++++++++++++++++++..........",
"..............++++++++++++++++++++..............",
"  ................++++++++++++................  ",
"      ................++++................      ",
"          ............................          ",
"              ....................              ",
"XX                ............                XX",
"XXXXXX                ....                XXXXXX",
"XXXXXXXXXX                            XXXXXXXXXX",
"XXXXXXXXXXXXXX                    XXXXXXXXXXXXXX",
"ooXXXXXXXXXXXXXXXX            XXXXXXXXXXXXXXXXoo",
"ooooooXXXXXXXXXXXXXXXX    XXXXXXXXXXXXXXXXoooooo",
"ooooooooooXXXXXXXXXXXXXXXXXXXXXXXXXXXXoooooooooo",
"ooooooooooooooXXXXXXXXXXXXXXXXXXXXoooooooooooooo",
"OOooooooooooooooooXXXXXXXXXXXXooooooooooooooooOO",
"OOOOOOooooooooooooooooXXXXooooooooooooooooOOOOOO",
"OOOOOOOOOOooooooooooooooooooooooooooooOOOOOOOOOO",
"OOOOOOOOOOOOOOooooooooooooooooooooOOOOOOOOOOOOOO",
"++OOOOOOOOOOOOOOOOooooooooooooOOOOOOOOOOOOOOOO++",
"++++++OOOOOOOOOOOOOOOOooooOOOOOOOOOOOOOOOO++++++",
"++++++++++OOOOOOOOOOOOOOOOOOOOOOOOOOOO++++++++++",
"++++++++++++++OOOOOOOOOOOOOOOOOOOO++++++++++++++",
"..++++++++++++++++OOOOOOOOOOOO++++++++++++++++..",
"......++++++++++++++++OOOO++++++++++++++++......",
"..........++++++++++++++++++++++++++++..........",
"..............++++++++++++++++++++..............",
"  ................++++++++++++................  ",
"      ................++++................      "};
