/* XPM */
static char * socket_xpm[] = {
"48 48 5 1",
" 	c white",
".	c #C0C0C0",
"X	c #808080",
"o	c black",
"O	c navy",
"                                               .",
" ..............................................X",
" ..............................................X",
" .......           X.........           X......X",
" ....... XXXXXXXXXXo......... XXXXXXXXXXo......X",
" ....... XXXXXXXXXXo......... XXXXXXXXXXo......X",
" ....... XXXXXXXXXXo......... XXXXXXXXXXo......X",
" ....... XXXXooXXXXo......... XXXXooXXXXo......X",
" ....... XXXOooXXXXo......... XXXXooOXXXo......X",
" ....... XXXXooXXXXX          XXXXooXXXXo......X",
" ....... XXXXXXXXXXXXXXXXXXXXXXXXXXXXXXXo......X",
" ....... XXXXXXXXXXXXXXXXXXXXXXXXXXXXXXXo......X",
" ....... XXXXooXXXXooooooooooXXXXXooXXXXo......X",
" ....... XXXOooXXXXo......... XXXXooOXXXo......X",
" ....... XXXXooXXXXo......... XXXXooXXXXo......X",
" ....... XXXXXXXXXXo......... XXXXXXXXXXo......X",
" ....... XXXXXXXXXXo......... XXXXXXXXXXo......X",
" ....... XXXXooXXXXo......... XXXXooXXXXo......X",
" ....... XXXOooXXXXo......... XXXXooOXXXo......X",
" ....... XXXXooXXXXo......... XXXXooXXXXo......X",
" ....... XXXXXXXXXXo......... XXXXXXXXXXo......X",
" ....... XXXXXXXXXXo......... XXXXXXXXXXo......X",
" ....... XXXXooXXXXo......... XXXXooXXXXo......X",
" ....... XXXOooXXXXo......... XXXXooOXXXo......X",
" ....... XXXXooXXXXo......... XXXXooXXXXo......X",
" ....... XXXXXXXXXXo......... XXXXXXXXXXo......X",
" ....... XXXXXXXXXXo......... XXXXXXXXXXo......X",
" ....... XXXXooXXXXo......... XXXXooXXXXo......X",
" ....... XXXOooXXXXo......... XXXXooOXXXo......X",
" ....... XXXXooXXXXo......... XXXXooXXXXo......X",
" ....... XXXXXXXXXXo......... XXXXXXXXXXo......X",
" ....... XXXXXXXXXXo......... XXXXXXXXXXo......X",
" ....... XXXXooXXXXo......... XXXXooXXXXo......X",
" ....... XXXOooXXXXo......... XXXXooOXXXo......X",
" ....... XXXXooXXXXX          XXXXooXXXXo......X",
" ....... XXXXXXXXXXXXXXXXXXXXXXXXXXXXXXXo......X",
" ....... XXXXXXXXXXXXXXXXXXXXXXXXXXXXXXXo......X",
" ....... XXXXooXXXXooooooooooXXXXXooXXXXo......X",
" ....... XXXOooXXXXo......... XXXXooOXXXo......X",
" ....... XXXXooXXXXo......... XXXXooXXXXo......X",
" ....... XXXXXXXXXXo......... XXXXXXXXXXo......X",
" ....... XXXXXXXXXXo......... XXXXXXXXXXo......X",
" ....... XXXXXXXXXXo......... XXXXXXXXXXo......X",
" ....... XXXXXXXXXXo......... XXXXXXXXXXo......X",
" .......Xooooooooooo.........Xooooooooooo......X",
" ..............................................X",
" ..............................................X",
".XXXXXXXXXXXXXXXXXXXXXXXXXXXXXXXXXXXXXXXXXXXXXXX"};
