/* XPM */
static char * switchclosed_xpm[] = {
"48 48 5 1",
" 	c #C0C0C0",
".	c green",
"X	c #808000",
"o	c black",
"O	c #808080",
" ...   ...   ...   ...   ...   ...   ...   ... X",
" ...   ...   ...   ...   ...   ...   ...   ...oo",
"                                             Ooo",
".. OOOOOOOOOOOOOOOOOOOOOOOOOOOOOOOOOOOOOOOOOOo..",
".. OOOOOOOOOOOOOOOOOOOOOOOOOOOOOOOOOOOOOOOOOOo..",
".. OOOOOOOOOOOOOOOOOOOOOOOOOOOOOOOOOOOOOOOOOOo..",
"   OOOOOOOOOOOOOOOOOOOOOOOOOOOOOOOOOOOOOOOOOOooo",
"   OOOOOOOOOOOOOOOOOOOOOOOOOOOOOOOOOOOOOOOOOOooo",
"   OOOOOOOOOOOOOOOOOOOOOOOOOOOOOOOOOOOOOOOOOOooo",
".. OOOOOOOOOOOOOOOOOOOOOOOOOOOOOOOOOOOOOOOOOOo..",
".. OOOOOOOOOOOOOOOOOOOOOOOOOOOOOOOOOOOOOOOOOOo..",
".. OOOOOOOOOOOOOOOOOOOOOOOOOOOOOOOOOOOOOOOOOOo..",
"   OOOOOOOOOOOOOOOOOOOOOOOOOOOOOOOOOOOOOOOOOOooo",
"   OOOOOOOOOOOOOOOOOOOOOOOOOOOOOOOOOOOOOOOOOOooo",
"   OOOOOOOOOOOOOOOOOOOOOOOOOOOOOOOOOOOOOOOOOOooo",
".. OOOOOOOOOOOOOOOOOOOOOOOOOOOOOOOOOOOOOOOOOOo..",
".. OOOOOOOOOOOOOOOOOOOOOOOOOOOOOOOOOOOOOOOOOOo..",
".. OOOOOOOOOOOOOOOOOOOOOOOOOOOOOOOOOOOOOOOOOOo..",
"   OOOOOOOOOOOOOOOOOOOOOOOOOOOOOOOOOOOOOOOOOOooo",
"   OOOOOOOOOOOOOOOOOOOOOOOOOOOOOOOOOOOOOOOOOOooo",
"   OOOOOOOOOOOOOOOOOOOOOOOOOOOOOOOOOOOOOOOOOOooo",
".. OOOOOOOOOOOOOOOOOOOOOOOOOOOOOOOOOOOOOOOOOOo..",
".. OOOOOOOOOOOOOOOOOOOOOOOOOOOOOOOOOOOOOOOOOOo..",
".. OOOOOOOOOOOOOOOOOOOOOOOOOOOOOOOOOOOOOOOOOOo..",
"   OOOOOOOOOOOOOOOOOOOOOOOOOOOOOOOOOOOOOOOOOOooo",
"   OOOOOOOOOOOOOOOOOOOOOOOOOOOOOOOOOOOOOOOOOOooo",
"   OOOOOOOOOOOOOOOOOOOOOOOOOOOOOOOOOOOOOOOOOOooo",
".. OOOOOOOOOOOOOOOOOOOOOOOOOOOOOOOOOOOOOOOOOOo..",
".. OOOOOOOOOOOOOOOOOOOOOOOOOOOOOOOOOOOOOOOOOOo..",
".. OOOOOOOOOOOOOOOOOOOOOOOOOOOOOOOOOOOOOOOOOOo..",
"   OOOOOOOOOOOOOOOOOOOOOOOOOOOOOOOOOOOOOOOOOOooo",
"   OOOOOOOOOOOOOOOOOOOOOOOOOOOOOOOOOOOOOOOOOOooo",
"   OOOOOOOOOOOOOOOOOOOOOOOOOOOOOOOOOOOOOOOOOOooo",
".. OOOOOOOOOOOOOOOOOOOOOOOOOOOOOOOOOOOOOOOOOOo..",
".. OOOOOOOOOOOOOOOOOOOOOOOOOOOOOOOOOOOOOOOOOOo..",
".. OOOOOOOOOOOOOOOOOOOOOOOOOOOOOOOOOOOOOOOOOOo..",
"   OOOOOOOOOOOOOOOOOOOOOOOOOOOOOOOOOOOOOOOOOOooo",
"   OOOOOOOOOOOOOOOOOOOOOOOOOOOOOOOOOOOOOOOOOOooo",
"   OOOOOOOOOOOOOOOOOOOOOOOOOOOOOOOOOOOOOOOOOOooo",
".. OOOOOOOOOOOOOOOOOOOOOOOOOOOOOOOOOOOOOOOOOOo..",
".. OOOOOOOOOOOOOOOOOOOOOOOOOOOOOOOOOOOOOOOOOOo..",
".. OOOOOOOOOOOOOOOOOOOOOOOOOOOOOOOOOOOOOOOOOOo..",
"   OOOOOOOOOOOOOOOOOOOOOOOOOOOOOOOOOOOOOOOOOOooo",
"   OOOOOOOOOOOOOOOOOOOOOOOOOOOOOOOOOOOOOOOOOOooo",
"   OOOOOOOOOOOOOOOOOOOOOOOOOOOOOOOOOOOOOOOOOOooo",
"..Oooooooooooooooooooooooooooooooooooooooooooo..",
"..ooo...ooo...ooo...ooo...ooo...ooo...ooo...oo..",
"..ooo...ooo...ooo...ooo...ooo...ooo...ooo...oo.."};
