/* XPM */
static char * tank_w_xpm[] = {
"48 48 9 1",
" 	c None",
".	c blue",
"X	c #008080",
"o	c #C0C0C0",
"O	c navy",
"+	c black",
"@	c gray28",
"#	c #1F271F",
"$	c #070707",
"                                                ",
"                                                ",
"                                                ",
"                                                ",
"                                                ",
"                                                ",
"                                                ",
"                                                ",
"                                                ",
"                                                ",
"                                                ",
"                                                ",
"                                                ",
"                                                ",
"                                                ",
"                                                ",
"            .X.X.X.X.X.X.X.X.X.X.X.             ",
"           Xo..O..O..O..O.....O..O..            ",
"           X...++..XXXXXXXX....@@...            ",
"           X...++.X........X...@@.O.            ",
"           X.....O.....oO...X..@@.O             ",
"           XOO++OO.....XO...X..@@.OO            ",
"           X+++OOO..o..##...X.....OO            ",
"   ..............O..........X..@@.O             ",
"   OOOOOOOOOOOOOOOO.+......@X..@@.O             ",
"           ++++++OO...oO....X.....OO            ",
"           X.++..+O...##...X...@@.OO            ",
"           X..+.OOOO......O.$..@@.O             ",
"           XOO..OO++OOOOOOOO@..@@..O            ",
"           X...OOOO++++++++.@.+.....            ",
"           OOO+.+.+.+.+.+.+.+.+.+.+O            ",
"             OOOOOOOOOOOOOOOOOOOOOO             ",
"                                                ",
"                                                ",
"                                                ",
"                                                ",
"                                                ",
"                                                ",
"                                                ",
"                                                ",
"                                                ",
"                                                ",
"                                                ",
"                                                ",
"                                                ",
"                                                ",
"                                                ",
"                                                "};
