/* XPM */
static char * tank_s_xpm[] = {
"48 48 9 1",
" 	c None",
".	c blue",
"X	c #008080",
"o	c navy",
"O	c black",
"+	c #C0C0C0",
"@	c gray28",
"#	c #070707",
"$	c #1F271F",
"                                                ",
"                                                ",
"                                                ",
"                                                ",
"                                                ",
"                                                ",
"                                                ",
"                                                ",
"                                                ",
"                                                ",
"                                                ",
"                                                ",
"                 ... XX  XX X.o                 ",
"                ...ooooooooo..Oo                ",
"                X+.............o                ",
"                ..@@@@.@@.@@@.Oo                ",
"                X.@@@@.@@.@@@..o                ",
"                .o...........OOo                ",
"                X..............o                ",
"                ....XXXXXX.#@@Oo                ",
"                X..X....@.X.o..o                ",
"                ..X........ooOOo                ",
"                X.X.........oO.o                ",
"                .oX.+X$.....oOOo                ",
"                X.X.oo$..+$.oO.o                ",
"                ..X......o$.oOOo                ",
"                XoX.........oO.o                ",
"                ..X...o.O...oOOo                ",
"                X.X........oOO.o                ",
"                .o.X....ooooOoOo                ",
"                X...ooooooOooo.o                ",
"                ..OO.oo.oO.oooOo                ",
"                XoOO.Oo.oO...o.o                ",
"                .....OO.oOOO..Oo                ",
"                X....oO.oOO.o.oo                ",
"                .o...oO.oO..o.o                 ",
"                 oooooo.ooooooo                 ",
"                       .o                       ",
"                       .o                       ",
"                       .o                       ",
"                       .o                       ",
"                       .o                       ",
"                       .o                       ",
"                       .o                       ",
"                       .o                       ",
"                                                ",
"                                                ",
"                                                "};
