/* XPM */
static char * tank_e_xpm[] = {
"48 48 11 1",
" 	c None",
".	c blue",
"X	c #008080",
"o	c #C0C0C0",
"O	c navy",
"+	c #076707",
"@	c gray28",
"#	c black",
"$	c #1F271F",
"%	c #808080",
"&	c #070707",
"                                                ",
"                                                ",
"                                                ",
"                                                ",
"                                                ",
"                                                ",
"                                                ",
"                                                ",
"                                                ",
"                                                ",
"                                                ",
"                                                ",
"                                                ",
"                                                ",
"                                                ",
"                                                ",
"             .X.X.X.X.X.X.X.X.X.X.X.            ",
"            ..o..O.....O..O..O..O..+O           ",
"            ...@@....XXXXXXXX..##...O           ",
"            .O.@@...X........X.##...O           ",
"             O.@@..X...o$.....O.....O           ",
"            XO.@@..X...%$.....OO##OOO           ",
"            XO.....X...$$..o..OOO###O           ",
"             O.@@..X..........O..............   ",
"             O.@@..X@......#.OOOOOOOOOOOOOOOO   ",
"            XO.....X....o$...OO######           ",
"            XO.@@...X...$$...O#..##.O           ",
"             O.@@..&.O......OOOO.#..O           ",
"            X..@@..@OOOOOOOO##OO..###           ",
"            .....#.@.########OOOO...O           ",
"            O#.#.#.#.#.#.#.#.#.#.#OOO           ",
"             OOOOOOOOOOOOOOOOOOOOOO             ",
"                                                ",
"                                                ",
"                                                ",
"                                                ",
"                                                ",
"                                                ",
"                                                ",
"                                                ",
"                                                ",
"                                                ",
"                                                ",
"                                                ",
"                                                ",
"                                                ",
"                                                ",
"                                                "};
