/* XPM */
static char * tank_n_xpm[] = {
"48 48 9 1",
" 	c None",
".	c blue",
"X	c navy",
"o	c #008080",
"O	c black",
"+	c #1F271F",
"@	c #C0C0C0",
"#	c gray28",
"$	c #070707",
"                                                ",
"                                                ",
"                                                ",
"                       .X                       ",
"                       .X                       ",
"                       .X                       ",
"                       .X                       ",
"                       .X                       ",
"                       .X                       ",
"                       .X                       ",
"                       .X                       ",
"                 oooooo.Xooooo.                 ",
"                .o...XO.XO..X.X                 ",
"                o....XO.XOO.X.XX                ",
"                .....OO.XOOO..OX                ",
"                oXOO.OX.XO...X.X                ",
"                ..OO.XX.XO.XXXOX                ",
"                o...ooooooOXXX.X                ",
"                .X.oXX....oXOXOX                ",
"                o.o........XOO.X                ",
"                ..o...X.O...XOOX                ",
"                oXo.........XO.X                ",
"                ..o......X+.XOOX                ",
"                o.o.XX+..@+.XO.X                ",
"                .Xo.@o+.....XOOX                ",
"                o.o.........XO.X                ",
"                ..o........OXOOX                ",
"                o..o....#.O.X..X                ",
"                ....XXXXXO.$##OX                ",
"                o..............X                ",
"                .X...........OOX                ",
"                o.####.##.###..X                ",
"                ..####.##.###.OX                ",
"                o@.............X                ",
"                ...XXXXXXXXX..OO                ",
"                 .XX XX  XX XOO                 ",
"                                                ",
"                                                ",
"                                                ",
"                                                ",
"                                                ",
"                                                ",
"                                                ",
"                                                ",
"                                                ",
"                                                ",
"                                                ",
"                                                "};
