/* XPM */
static char * teeth_e_xpm[] = {
"48 48 6 1",
" 	c None",
".	c #808080",
"X	c black",
"o	c #008000",
"O	c #008080",
"+	c green",
"                                                ",
"                                                ",
"                                                ",
"                                                ",
"                                                ",
"                                                ",
"                   ..........                   ",
"                   XooooooooX                   ",
"                   XXooooooXX                   ",
"                    XXXooXXX                    ",
"                      XXXX                      ",
"                       XX                       ",
"                      XXXX                      ",
"                    XXXXXXXX                    ",
"                  XXooooooooXX                  ",
"                XXoooooooooooXXX                ",
"               XXoooOOoOooooooXXX               ",
"               XooOOOOOoOooooooXXX              ",
"              XooOOOOOOOoOooooooXX              ",
"      .XX     XooOOOOOOOOooooooXXX     XXo      ",
"      .oXX   XoooOOOOOOOooooooooXXX   XX+o      ",
"      .ooX   XooooOOOOOoOoooooooXXX   X++o      ",
"      .ooXX XooooooOoOoOooooooooXXXX XX++o      ",
"      .oooXXXXooooooOooooooooooXXXXXXX+++o      ",
"      .oooXXXXooooooooooooooooooXXXXXX+++o      ",
"      .ooXX XXoooooooooooooooooXXXXX XX++o      ",
"      .ooX   XXoooooooooooooooXoXXX   X++o      ",
"      .oXX   XXooooooooooooooXoXXXX   XX+o      ",
"      .XX     XXoXooooooooooXoXXXX     XXo      ",
"              XXXoXoooooooXooXXXXX              ",
"               XXXoXoXoXoXoXoXXXX               ",
"               XXXXXXXXoXXXXXXXXX               ",
"                XXXXXXXXXXXXXXXX                ",
"                 XXXXXXXXXXXXXX                 ",
"                    XXXXXXXX                    ",
"                      XXXX                      ",
"                       XX                       ",
"                      XXXX                      ",
"                    XXXooXXX                    ",
"                   XXooooooXX                   ",
"                   XooooooooX                   ",
"                   ..........                   ",
"                                                ",
"                                                ",
"                                                ",
"                                                ",
"                                                ",
"                                                "};
