/* XPM */
static char * teeth_n_xpm[] = {
"48 48 6 1",
" 	c None",
".	c #008000",
"X	c black",
"o	c green",
"O	c #008080",
"+	c #808080",
"                                                ",
"                                                ",
"                                                ",
"                                                ",
"                                                ",
"                                                ",
"                   ..........                   ",
"                   XooooooooX                   ",
"                   XXooooooXX                   ",
"                    XXXooXXX                    ",
"                      XXXX                      ",
"                       XX                       ",
"                      XXXX                      ",
"                    XXXXXXXX                    ",
"                  XX........XX                  ",
"                XX...........XXX                ",
"               XX...OO.O......XXX               ",
"               X..OOOOO.O......XXX              ",
"              X..OOOOOOO.O......XX              ",
"      +XX     X..OOOOOOOO......XXX     XX+      ",
"      +.XX   X...OOOOOOO........XXX   XX.+      ",
"      +..X   X....OOOOO.O.......XXX   X..+      ",
"      +..XX X......O.O.O........XXXX XX..+      ",
"      +...XXXX......O..........XXXXXXX...+      ",
"      +...XXXX..................XXXXXX...+      ",
"      +..XX XX.................XXXXX XX..+      ",
"      +..X   XX...............X.XXX   X..+      ",
"      +.XX   XX..............X.XXXX   XX.+      ",
"      +XX     XX.X..........X.XXXX     XX+      ",
"              XXX.X.......X..XXXXX              ",
"               XXX.X.X.X.X.X.XXXX               ",
"               XXXXXXXX.XXXXXXXXX               ",
"                XXXXXXXXXXXXXXXX                ",
"                 XXXXXXXXXXXXXX                 ",
"                    XXXXXXXX                    ",
"                      XXXX                      ",
"                       XX                       ",
"                      XXXX                      ",
"                    XXX..XXX                    ",
"                   XX......XX                   ",
"                   X........X                   ",
"                   ++++++++++                   ",
"                                                ",
"                                                ",
"                                                ",
"                                                ",
"                                                ",
"                                                "};
