/* XPM */
static char * teeth_s_xpm[] = {
"48 48 6 1",
" 	c None",
".	c #808080",
"X	c black",
"o	c #008000",
"O	c #008080",
"+	c green",
"                                                ",
"                                                ",
"                                                ",
"                                                ",
"                                                ",
"                                                ",
"                   ..........                   ",
"                   XooooooooX                   ",
"                   XXooooooXX                   ",
"                    XXXooXXX                    ",
"                      XXXX                      ",
"                       XX                       ",
"                      XXXX                      ",
"                    XXXXXXXX                    ",
"                  XXooooooooXX                  ",
"                XXoooooooooooXXX                ",
"               XXoooOOoOooooooXXX               ",
"               XooOOOOOoOooooooXXX              ",
"              XooOOOOOOOoOooooooXX              ",
"      .XX     XooOOOOOOOOooooooXXX     XX.      ",
"      .oXX   XoooOOOOOOOooooooooXXX   XXo.      ",
"      .ooX   XooooOOOOOoOoooooooXXX   Xoo.      ",
"      .ooXX XooooooOoOoOooooooooXXXX XXoo.      ",
"      .oooXXXXooooooOooooooooooXXXXXXXooo.      ",
"      .oooXXXXooooooooooooooooooXXXXXXooo.      ",
"      .ooXX XXoooooooooooooooooXXXXX XXoo.      ",
"      .ooX   XXoooooooooooooooXoXXX   Xoo.      ",
"      .oXX   XXooooooooooooooXoXXXX   XXo.      ",
"      .XX     XXoXooooooooooXoXXXX     XX.      ",
"              XXXoXoooooooXooXXXXX              ",
"               XXXoXoXoXoXoXoXXXX               ",
"               XXXXXXXXoXXXXXXXXX               ",
"                XXXXXXXXXXXXXXXX                ",
"                 XXXXXXXXXXXXXX                 ",
"                    XXXXXXXX                    ",
"                      XXXX                      ",
"                       XX                       ",
"                      XXXX                      ",
"                    XXX++XXX                    ",
"                   XX++++++XX                   ",
"                   X++++++++X                   ",
"                   oooooooooo                   ",
"                                                ",
"                                                ",
"                                                ",
"                                                ",
"                                                ",
"                                                "};
