/* XPM */
static char * teleport_xpm[] = {
"48 48 4 1",
" 	c white",
".	c #C0C0C0",
"X	c #808080",
"o	c yellow",
"                                               .",
" ..............................................X",
" ..............................................X",
" ..............................................X",
" ..............................................X",
" ..............................................X",
" ..............................................X",
" ..............................................X",
" ..............................................X",
" ..............................................X",
" ..................XXXXXXXXX...................X",
" ................XX         XX.................X",
" ..............XX  o       o  XX...............X",
" .............X                 X..............X",
" ............X o o  o     o  o oo .............X",
" ...........X o   o         o   o. ............X",
" ...........X   o    o   o    o  . ............X",
" ..........X  o  o o  ooo  o o  o . ...........X",
" ..........X   o               o  . ...........X",
" .........X o    o  o     o  o    o. ..........X",
" .........X   o    o o   o o    o  . ..........X",
" .........X     o   o     o   o    . ..........X",
" .........X      o    o o    o     . ..........X",
" .........X      o     o     o     . ..........X",
" .........X      o    o o    o     . ..........X",
" .........X     o   o     o   o    . ..........X",
" .........X   o    o o   o o    o  . ..........X",
" .........X o    o  o     o  o    o. ..........X",
" ..........X   o               o  . ...........X",
" ..........X  o  o o  ooo  o o  o . ...........X",
" ...........X   o    o   o    o  . ............X",
" ...........X o   o         o   o. ............X",
" ............Xoo o  o     o  o o. .............X",
" ............. ..             .. ..............X",
" ..............  ..o       o..  ...............X",
" ................  .........  .................X",
" ..................         ...................X",
" ..............................................X",
" ..............................................X",
" ..............................................X",
" ..............................................X",
" ..............................................X",
" ..............................................X",
" ..............................................X",
" ..............................................X",
" ..............................................X",
" ..............................................X",
".XXXXXXXXXXXXXXXXXXXXXXXXXXXXXXXXXXXXXXXXXXXXXXX"};
