/* XPM */
static char * walker_e_xpm[] = {
"48 48 4 1",
" 	c None",
".	c black",
"X	c #808080",
"o	c #C0C0C0",
"                                                ",
"                                                ",
"                                                ",
"                                                ",
"                                                ",
"                                                ",
"                                                ",
"                                                ",
"                                                ",
"    .......                          .......    ",
"   .XoXoXoX.                        .XoXoXoX.   ",
"   .oX...Xo.                        .oX...Xo.   ",
"   .X..XX...                        ...XX..X.   ",
"   .o.Xo.....                      ..XX.o..o.   ",
"   .X.X..o.....                  ..XX.o....X.   ",
"   .oX...........              ..XX.......Xo.   ",
"   .XoX............          ..XX........XoX.   ",
"    .................      ..XX.............    ",
"           ............  ..XX........           ",
"             ............XX........             ",
"               ........XX........               ",
"                 X...Xo...o....                 ",
"                 ..XX...o.....X                 ",
"               ..XX...o...o......               ",
"             ..XX..................             ",
"           ..XX........  ............           ",
"   ........XX........      ..................   ",
"  .XoXo..XX........          ............oXoX.  ",
"  .oX..XX........              ............Xo.  ",
"  .X..X..o.....                  ......o....X.  ",
"  .o.X.o.....                      ......o..o.  ",
"  .X.X.....                          .......X.  ",
"  .oX....o.                          .o....Xo.  ",
"  .XoXoXoX.                          .XoXoXoX.  ",
"   .......                            .......   ",
"                                                ",
"                                                ",
"                                                ",
"                                                ",
"                                                ",
"                                                ",
"                                                ",
"                                                ",
"                                                ",
"                                                ",
"                                                ",
"                                                ",
"                                                "};
