/* XPM */
static char * walker_s_xpm[] = {
"48 48 5 1",
" 	c None",
".	c white",
"X	c black",
"o	c #808080",
"O	c #C0C0C0",
"                                                ",
"                                                ",
"                           XXXXXXX              ",
"          XXXXXXX         XoOoOoOoX             ",
"         XoOoOoOoX        XOoXXXoOX             ",
"         XOoXXXoOX        XoXXooXoX             ",
"         XoXXooXoX        XOXoXXXOX             ",
"         XOXoOXXXX        XXoXOXXoX             ",
"         XoXoXXXXX        XXoXXXXOX             ",
"         XOoXXOXXX        XoXOXXOoX             ",
"         XoOXXXXXX        XoXXXXXX              ",
"          XXXXXXXXX      XoXXXX                 ",
"             XXXXXX      XoXXXX                 ",
"              XXXXXX    XoXXXX                  ",
"              XXXXXX    XoXXXX                  ",
"               XXXXXX  XoXXXX                   ",
"               XXXXXX  XoXXXX                   ",
"                XXXXXoXoXXXX                    ",
"                XXXXXXXoXXXX                    ",
"                 XXXXXoXXXX                     ",
"                 XXXXXoXXXX                     ",
"                  XXXoXXXX                      ",
"                  XXXOXOXX                      ",
"                   XoXXXX                       ",
"                   XoXOXX                       ",
"                  XoXXXXXX                      ",
"                  XoXOXOXX                      ",
"                 XoXXXXXXXX                     ",
"                 XoXXXXXXXX                     ",
"                XoXXXXXXXXXX                    ",
"                XoXXXXoXXXXX                    ",
"               XoXXXX  XXXXXX                   ",
"               XoXXXX  XXXXXX                   ",
"              XoXXXX    XXXXXX                  ",
"              XoXXXX    XXXXXX                  ",
"             XoXXXX      XXXXXX                 ",
"          XXXXoXXXX      XXXXXX                 ",
"         XoOXoXXXX        XXXXXXXX              ",
"         XOoXoOXXX        XXXXXXOoX             ",
"         XoXoXXXXX        XXXOXXXOX             ",
"         XOXoOXXXX        XXXXXXXoX             ",
"         XoXXXXXoX        XOXXOXXOX             ",
"         XOoXXXoOX        XoXXXXXoX             ",
"         XoOoOoOoX        XOoXXXoOX             ",
"          XXXXXXX         XoOoOoOoX             ",
"                           XXXXXXX              ",
"                                                ",
"                                                "};
