/* XPM */
static char * wallsouth_xpm[] = {
"48 48 5 1",
" 	c None",
".	c #FFFFFF",
"+	c #C0C0C0",
"@	c #808080",
"#	c #808080",
"...............................................+",
".++++++++++++++++++++++++++++++++++++++++++++++@",
".++++++++++++++++++++++++++++++++++++++++++++++@",
".++++++++++++++++++++++++++++++++++++++++++++++@",
".++++++++++++++++++++++++++++++++++++++++++++++@",
".++++++++++++++++++++++++++++++++++++++++++++++@",
".++++++++++++++++++++++++++++++++++++++++++++++@",
".++++++++++++++++++++++++++++++++++++++++++++++@",
".++++++++++++++++++++++++++++++++++++++++++++++@",
".++++++++++++++++++++++++++++++++++++++++++++++@",
".++++++++++++++++++++++++++++++++++++++++++++++@",
".++++++++++++++++++++++++++++++++++++++++++++++@",
".++++++++++++++++++++++++++++++++++++++++++++++@",
".++++++++++++++++++++++++++++++++++++++++++++++@",
".++++++++++++++++++++++++++++++++++++++++++++++@",
".++++++++++++++++++++++++++++++++++++++++++++++@",
".++++++++++++++++++++++++++++++++++++++++++++++@",
".++++++++++++++++++++++++++++++++++++++++++++++@",
".++++++++++++++++++++++++++++++++++++++++++++++@",
".++++++++++++++++++++++++++++++++++++++++++++++@",
".++++++++++++++++++++++++++++++++++++++++++++++@",
".++++++++++++++++++++++++++++++++++++++++++++++@",
".++++++++++++++++++++++++++++++++++++++++++++++@",
".++++++++++++++++++++++++++++++++++++++++++++++@",
".++++++++++++++++++++++++++++++++++++++++++++++@",
".++++++++++++++++++++++++++++++++++++++++++++++@",
".++++++++++++++++++++++++++++++++++++++++++++++@",
".++++++++++++++++++++++++++++++++++++++++++++++@",
".++++++++++++++++++++++++++++++++++++++++++++++@",
".++++++++++++++++++++++++++++++++++++++++++++++@",
".++++++++++++++++++++++++++++++++++++++++++++++@",
".++++++++++++++++++++++++++++++++++++++++++++++@",
".++++++++++++++++++++++++++++++++++++++++++++++@",
".++++++++++++++++++++++++++++++++++++++++++++++@",
".++++++++++++++++++++++++++++++++++++++++++++++@",
".++++++++++++++++++++++++++++++++++++++++++++++@",
".++++++++++++++++++++++++++++++++++++++++++++++@",
".++++++++++++++++++++++++++++++++++++++++++++++@",
".++++++++++++++++++++++++++++++++++++++++++++++@",
".++++++++++++++++++++++++++++++++++++++++++++++@",
".++++++++++++++++++++++++++++++++++++++++++++++@",
".++++++++++++++++++++++++++++++++++++++++++++++@",
"...............................................@",
"..............................................+@",
"..++++++++++++++++++++++++++++++++++++++++++++#@",
"..++++++++++++++++++++++++++++++++++++++++++++#@",
".+#############################################@",
"+@@@@@##@@@@####@@@@@@@@@@@@@@@@@@@@@@@@@@@@@@@@"};
