/* XPM */
static char * water_xpm[] = {
"48 48 4 1",
" 	c navy",
".	c blue",
"X	c #008000",
"o	c #008080",
"       . . ..........XXX X     . .......o.XXX.  ",
"oXXX         ..............XXX      . .......ooo",
"..o.oXXX       .. ..............XX      ........",
"........oXXX         . ..............      .....",
".............XXX          . .........XXX      . ",
" . .............oXXX         .   . ......XXX    ",
"     ................XXX            . ........  ",
"XX       ...............oXXX           . .....XX",
"..XXXX        ..............oXXX           . ...",
".......XXX         ..............XXX           .",
" . . .......XXXXX      .... ........oXXX        ",
"      .............X .   .   ..........oo..X    ",
"           ...........XXX        .........o.oXXX",
"oXXX    .     ...........X..      .............o",
"....oXXX          . .........XXXX    ...........",
".......ooXXX         . . . ......XX      .......",
"............oXXX             ......X.XXX      ..",
".................XXX       .    .........XX     ",
" .  . ..............oXXXX.        .........XXX  ",
"X         . .............ooooXXX      ........XX",
".XXXXXX       . ............o...oXXX      ......",
".........XXX     . ..................XXX      ..",
".............XXX     ...................oXXX    ",
"  . ............XX      .    ...............oXXX",
"      . ...........XXX     .   ..  ............o",
"oXXX      . ..........X             .  .........",
".....XXX      . ........XXX              .......",
"........oXX       . ........XXXX           . ...",
"............oXX       ...........X            ..",
"...............ooXX     ............XXXX        ",
" . ...............o.oXX   ..............X.XXX   ",
"       .  .............X     . ..............XXX",
"XXXX       .. ...........XX      . . ...........",
".X..XX          .  . ......ooXX         . ......",
"....X.XXXX            .........ooXX         ....",
".........X.XX            ........o.o.XX       ..",
"  . .........X.X.XXXX      . ..........ooXX     ",
"       ..............XX X      . .........oooXX ",
"oXXX       . ..........XXXXX       . ........o.o",
"o.o.ooXX        ............X.XXXX      ........",
"........ooXX       . . . ..........XX    .......",
"..........o.ooX            . .......X.XX    . ..",
" . .. .........o.oXX    .      . ........X      ",
"       . .........o.ooXX           .........XXXX",
"X.XXX      . .........o.ooXX          . .......X",
".......XX      ..............oXX          . ....",
" . ........X       . ............oXX          . ",
"     .........X         . . ..........XX .      "};
