/* XPM */
static char * watersplash_xpm[] = {
"48 48 4 1",
" 	c navy",
".	c blue",
"X	c #008000",
"o	c #008080",
"       . . ..........XXX X     . .......o.XXX.  ",
"oXXX         ..............XXX      . .......ooo",
"..o.oXXX       .. ...ooooooooo..XX      ........",
"........oXXX     ooooo ......oo......      .....",
"........o....XXXoo      ... .........XXX..   .. ",
" . ....oo.......oXXX   ....  .   . ...o.......  ",
"  ...o...............XX......   ..............  ",
"XX.o... .....................   .... ....o....XX",
"...o.. ...    ....oooooooo...XXX    ...... . ...",
".....o.XX..  ...oooooo...ooo.....XX.....       .",
" . .........X..oo     .......oo.......XX        ",
"     o.......oo....X ......  ..oo......oo..X    ",
"    .o ...............X....     ..........o.oXXX",
"oXXX.o.....o................    ...o...........o",
".....o..........  . .........XXXX  oo......o....",
"....o........  ......o.oo. ......XX o    ..o....",
"............o.X.... oo...oo........X.oo....o....",
"..........o........o........o.  ......o...Xo.   ",
" .o ......o.......o..X.X.. .oo.   ....o....oXX  ",
"Xo...  ..oo .............oo.oXX. ..  .o....o..XX",
".o..X......   . o.....ooo.......o.oX..o.  .o....",
".o..........  . o....o...o....o...o..XoX...o. ..",
"........o..o.XX.o...o..o..o...o...oo..o..X.X... ",
" .......oo.o...o...oo.o.o.o...o....o..o.....o..X",
"... o . o..o...o...oo.o.o.o....o...o..o.....o..o",
".o....  o .o...o....o..o..o.. .o ..o..o.....o...",
".......Xo .o ..oo....o...o....oo..oo..o.....o...",
".o......o..o. ..o . ..ooo.....oX .o...o.....o...",
"oo.......o.....    .....o.....o...o..oo. .. o ..",
".o.......o.....oooo .....o........o.XoXX..  o   ",
" o .......o.......ooo............oo.o...X.XXo   ",
" o .................oo...... . .oo..o......ooXXX",
"Xoo.o.. ..... .......oooooX    oo...o......o....",
".Xo.o.     o  ...  . ......ooooo...oo.  .oo.....",
"...oo.XXXX oo..       .......o.oo..o...     ....",
"...oo....X.Xoo. ...   .. ........ooo....      ..",
"  . oo........oo..XXX .... . ..ooo........X     ",
"     ooo.......ooo...X....   ooo .........oooXX ",
"oXXX   o.........oo...o.........   ..........o.o",
"o.o...XX..........ooooooooooX..XXX   .....o.....",
"............       . ..............XX  ....o....",
".............oX       ..............X.XX...o. ..",
" .... .........o.oXX  ....... .. .........o.    ",
"   o  .o.o.....o..o.ooXX...  .o    ......o..XXXX",
"X.XXoo..oo . ...o..........oooo       .o.......X",
".....oooo      .ooo...oooooo.oXX     oo.... ....",
" . ........X  ... ..ooo..........oXXoo.       . ",
"     .........X ....... . . ..........XX .      "};
